<svg width="302" height="270" viewBox="0 0 302 270" fill="none" xmlns="http://www.w3.org/2000/svg">
<path d="M255.927 86.6592C255.927 86.6592 245.737 50.1228 184.051 27.081C122.364 4.03918 67.1769 25.38 54.5956 52.38C42.0142 79.38 55.1996 93.96 46.804 117.018C38.4084 140.076 -4.72328 169.279 12.684 204.692C30.0913 240.106 111.547 250.22 177.461 242.914C243.376 235.607 294.873 154.667 255.927 86.6592Z" fill="#0075BB" fill-opacity="0.3"/>
<path opacity="0.7" d="M255.927 86.6592C255.927 86.6592 245.737 50.1228 184.051 27.081C122.364 4.03918 67.1769 25.38 54.5956 52.38C42.0142 79.38 55.1996 93.96 46.804 117.018C38.4084 140.076 -4.72328 169.279 12.684 204.692C30.0913 240.106 111.547 250.22 177.461 242.914C243.376 235.607 294.873 154.667 255.927 86.6592Z" fill="white"/>
<path d="M95.432 57.5532H45.3C43.6981 57.5532 42.1618 58.1221 41.0291 59.1348C39.8963 60.1475 39.26 61.5211 39.26 62.9532V79.6932C39.26 81.1254 39.8963 82.4989 41.0291 83.5116C42.1618 84.5243 43.6981 85.0932 45.3 85.0932H95.13L101.472 92.6532V62.9532C101.472 61.5211 100.836 60.1475 99.7029 59.1348C98.5702 58.1221 97.0339 57.5532 95.432 57.5532Z" fill="#263238"/>
<path d="M50.1743 75.9834H48.3623V65.7234H50.1743V70.1136H52.2158V65.7234H54.0278V75.9834H52.2158V71.5932H50.1743V75.9834Z" fill="#0075BB"/>
<path d="M55.3626 65.7396H57.1746V75.9996H55.3626V65.7396Z" fill="#0075BB"/>
<path d="M60.4846 65.7396H66.0474V67.203H64.1629V75.9834H62.3509V67.203H60.4725L60.4846 65.7396Z" fill="#0075BB"/>
<path d="M68.6325 75.9834H66.8205V65.7234H68.6325V70.1136H70.668V65.7234H72.48V75.9834H70.668V71.5932H68.6204L68.6325 75.9834Z" fill="#0075BB"/>
<path d="M75.6208 70.0542H78.0912V71.5176H75.6208V74.52H78.7314V75.9834H73.8209V65.7234H78.7314V67.1868H75.6208V70.0542Z" fill="#0075BB"/>
<path d="M83.6057 75.9834C83.458 75.578 83.4025 75.1502 83.4426 74.7252V73.1052C83.4426 72.1548 83.0862 71.8038 82.2346 71.8038H81.6306V75.9726H79.8186V65.7126H82.5366C84.403 65.7126 85.2063 66.4902 85.2063 68.067V68.8716C85.2063 69.9246 84.8258 70.6158 83.9983 70.9506C84.8982 71.2908 85.2063 72.063 85.2063 73.1106V74.6928C85.1736 75.1148 85.2415 75.5381 85.4056 75.9348L83.6057 75.9834ZM81.6427 67.203V70.3512H82.3494C83.0198 70.3512 83.4305 70.0866 83.4305 69.2712V68.256C83.4305 67.527 83.1527 67.176 82.5124 67.176L81.6427 67.203Z" fill="#0075BB"/>
<path d="M88.2263 70.0542H90.6966V71.5176H88.2263V74.52H91.3308V75.9834H86.4203V65.7234H91.3308V67.1868H88.2263V70.0542Z" fill="#0075BB"/>
<path d="M92.6778 73.7154L92.4482 70.011V65.7396H94.2602V70.011L94.0307 73.7154H92.6778ZM94.2119 74.4336V75.9834H92.4784V74.4336H94.2119Z" fill="#0075BB"/>
<path d="M179.992 58.0932C179.992 58.0932 177.757 57.3858 177.25 59.1732C176.742 60.9606 179.702 61.6248 180.064 61.6248C180.427 61.6248 181.001 61.1766 180.638 60.1452C180.276 59.1138 179.992 58.0932 179.992 58.0932Z" fill="#263238" stroke="#263238" stroke-linecap="round" stroke-linejoin="round"/>
<path d="M192.676 53.7084C192.676 53.7084 192.459 56.2896 192.459 57.321C192.459 58.3524 193.667 58.7412 194.271 58.7412C194.875 58.7412 195.14 59.967 194.778 61.2576C194.416 62.5482 193.189 63.3204 190.23 63.3204C187.27 63.3204 185.47 62.1594 185.398 61.3224C185.325 60.4854 186.044 56.8674 187.276 55.9224C188.508 54.9774 192.676 53.7084 192.676 53.7084Z" fill="#263238" stroke="#263238" stroke-linecap="round" stroke-linejoin="round"/>
<path d="M181.87 61.641V62.64C181.871 62.7972 181.922 62.951 182.017 63.0831C182.112 63.2152 182.248 63.32 182.408 63.3852C182.926 63.5812 183.477 63.6998 184.039 63.7362C185.17 63.7364 186.287 63.5152 187.312 63.0882C187.454 63.0341 187.575 62.9437 187.66 62.8285C187.745 62.7132 187.79 62.5782 187.79 62.4402V61.398C187.788 61.3344 187.77 61.2721 187.735 61.2166C187.701 61.161 187.651 61.1138 187.592 61.0792C187.532 61.0445 187.464 61.0235 187.393 61.0179C187.322 61.0123 187.251 61.0223 187.186 61.047L186.95 61.155C186.95 61.155 183.386 61.56 181.87 61.641Z" fill="#0075BB" stroke="#263238" stroke-linecap="round" stroke-linejoin="round"/>
<path d="M180.288 53.19C179.893 54.6086 179.626 56.0532 179.491 57.51C179.273 59.8968 179.491 62.0892 180.572 62.154C181.314 62.1552 182.04 61.9679 182.668 61.614C182.668 61.614 185.192 61.8732 186.056 61.4898L186.926 61.101L187.572 57.321C187.572 57.321 187.645 51.4512 186.419 51.0624C185.192 50.6736 180.288 53.19 180.288 53.19Z" fill="white" stroke="#263238" stroke-linecap="round" stroke-linejoin="round"/>
<path d="M182.233 55.8359L181.659 57.1913C181.659 57.1913 180.499 57.4505 180.644 57.9635C180.789 58.4765 181.556 58.4009 181.556 58.4009" stroke="#263238" stroke-linecap="round" stroke-linejoin="round"/>
<path d="M184.087 56.4246C183.972 56.7054 183.737 56.889 183.574 56.835C183.411 56.781 183.362 56.5056 183.483 56.2194C183.604 55.9332 183.833 55.7496 184.003 55.809C184.172 55.8684 184.22 56.16 184.087 56.4246Z" fill="#263238"/>
<path d="M181.369 55.7712C181.248 56.0574 181.019 56.241 180.85 56.187C180.681 56.133 180.644 55.8522 180.759 55.5714C180.874 55.2906 181.109 55.1016 181.279 55.1556C181.448 55.2096 181.484 55.4904 181.369 55.7712Z" fill="#263238"/>
<path d="M183.531 54.6102C183.531 54.6102 184.903 54.2862 185.047 55.4526" stroke="#263238" stroke-linecap="round" stroke-linejoin="round"/>
<path d="M181.732 54.2862C181.732 54.2862 180.524 53.9028 180.143 54.8262" stroke="#263238" stroke-linecap="round" stroke-linejoin="round"/>
<path d="M182.668 61.641L184.613 60.9336" stroke="#263238" stroke-linecap="round" stroke-linejoin="round"/>
<path d="M181.2 50.22C181.2 50.22 178.893 47.7684 177.159 49.572C175.426 51.3756 175.951 54.0918 179.038 54.2214C182.124 54.351 185.603 51.6402 185.603 51.6402C185.603 51.6402 185.241 55.188 186.104 56.4138C186.968 57.6396 187.621 58.4766 187.621 58.4766C187.621 58.4766 188.829 59.184 190.87 57.7692C192.912 56.3544 193.395 52.9092 191.951 50.6034C190.508 48.2976 187.983 46.9908 184.951 47.9034C181.919 48.816 181.2 50.22 181.2 50.22Z" fill="#263238" stroke="#263238" stroke-linecap="round" stroke-linejoin="round"/>
<path d="M186.201 58.4171C186.201 58.4171 188.798 56.2895 188.798 57.5153C188.798 58.7411 187.59 59.8373 186.636 59.5781" fill="white"/>
<path d="M186.201 58.4171C186.201 58.4171 188.798 56.2895 188.798 57.5153C188.798 58.7411 187.59 59.8373 186.636 59.5781" stroke="#263238" stroke-linecap="round" stroke-linejoin="round"/>
<path d="M180.644 59.4C180.986 59.6197 181.396 59.7379 181.816 59.7379C182.237 59.7379 182.647 59.6197 182.988 59.4" stroke="#263238" stroke-linecap="round" stroke-linejoin="round"/>
<path d="M194.048 63.4774C198.66 59.0895 198.42 52.1897 193.512 48.0663C188.604 43.9428 180.886 44.1573 176.274 48.5452C171.662 52.9331 171.902 59.8329 176.81 63.9563C181.718 68.0798 189.436 67.8653 194.048 63.4774Z" stroke="#263238" stroke-linecap="round" stroke-linejoin="round"/>
<path d="M268.149 144.702C275.08 143.253 279.386 137.055 277.765 130.858C276.144 124.661 269.211 120.811 262.28 122.26C255.348 123.709 251.043 129.908 252.663 136.105C254.284 142.302 261.217 146.151 268.149 144.702Z" stroke="#263238" stroke-linecap="round" stroke-linejoin="round"/>
<path d="M269.614 136.879C269.614 137.637 269.362 138.379 268.891 139.009C268.42 139.64 267.75 140.131 266.966 140.421C266.183 140.712 265.32 140.787 264.488 140.639C263.657 140.492 262.893 140.126 262.293 139.59C261.693 139.054 261.285 138.371 261.119 137.627C260.954 136.883 261.039 136.113 261.363 135.412C261.688 134.711 262.237 134.113 262.943 133.691C263.648 133.27 264.477 133.045 265.325 133.045C266.462 133.045 267.553 133.449 268.357 134.168C269.162 134.887 269.614 135.862 269.614 136.879Z" fill="#0075BB" stroke="#263238" stroke-linecap="round" stroke-linejoin="round"/>
<path d="M271.456 139.433C272.381 138.401 272.961 137.156 273.129 135.842C273.297 134.528 273.047 133.198 272.406 132.005C271.766 130.813 270.762 129.806 269.51 129.102C268.257 128.398 266.808 128.024 265.328 128.024C263.849 128.024 262.399 128.398 261.147 129.102C259.894 129.806 258.89 130.813 258.25 132.005C257.609 133.198 257.359 134.528 257.527 135.842C257.695 137.156 258.275 138.401 259.201 139.433H271.456Z" fill="white" stroke="#263238" stroke-linecap="round" stroke-linejoin="round"/>
<path d="M268.387 137.446H262.07C261.7 137.446 261.334 137.381 260.992 137.255C260.651 137.128 260.341 136.943 260.079 136.709C259.818 136.475 259.611 136.198 259.469 135.893C259.328 135.587 259.255 135.26 259.255 134.93C259.254 134.599 259.326 134.272 259.468 133.966C259.609 133.66 259.816 133.383 260.078 133.149C260.339 132.915 260.65 132.73 260.992 132.603C261.333 132.477 261.7 132.413 262.07 132.413H268.387C268.757 132.413 269.124 132.477 269.465 132.603C269.807 132.73 270.118 132.915 270.379 133.149C270.641 133.383 270.848 133.66 270.989 133.966C271.131 134.272 271.203 134.599 271.202 134.93C271.202 135.597 270.906 136.237 270.378 136.709C269.85 137.181 269.134 137.446 268.387 137.446Z" fill="#0075BB" stroke="#263238" stroke-linecap="round" stroke-linejoin="round"/>
<path d="M260.547 134.725C260.677 134.401 260.913 134.119 261.224 133.917C261.536 133.715 261.908 133.602 262.293 133.593C262.678 133.583 263.057 133.678 263.38 133.865C263.703 134.051 263.956 134.321 264.105 134.638" stroke="#263238" stroke-width="2" stroke-linecap="round" stroke-linejoin="round"/>
<path d="M266.455 134.725C266.584 134.401 266.82 134.119 267.131 133.917C267.443 133.715 267.816 133.602 268.2 133.593C268.585 133.583 268.964 133.678 269.287 133.865C269.611 134.051 269.863 134.321 270.012 134.638" stroke="#263238" stroke-width="2" stroke-linecap="round" stroke-linejoin="round"/>
<path d="M264.292 135.891C264.32 136.128 264.446 136.348 264.644 136.508C264.843 136.667 265.1 136.756 265.367 136.756C265.634 136.756 265.892 136.667 266.09 136.508C266.289 136.348 266.414 136.128 266.443 135.891H264.292Z" fill="white" stroke="#263238" stroke-linecap="round" stroke-linejoin="round"/>
<path d="M275.478 136.291C275.37 136.291 275.264 136.272 275.164 136.235C275.064 136.198 274.974 136.144 274.898 136.075C274.821 136.007 274.761 135.926 274.719 135.837C274.678 135.748 274.657 135.653 274.657 135.556V133.888C274.657 133.791 274.678 133.696 274.719 133.607C274.761 133.517 274.821 133.436 274.898 133.368C274.974 133.3 275.064 133.246 275.164 133.209C275.264 133.172 275.37 133.153 275.478 133.153C275.586 133.153 275.693 133.172 275.793 133.209C275.892 133.246 275.983 133.3 276.059 133.368C276.135 133.436 276.196 133.517 276.237 133.607C276.279 133.696 276.3 133.791 276.3 133.888V135.54C276.302 135.638 276.283 135.735 276.243 135.826C276.202 135.917 276.142 136 276.066 136.07C275.989 136.14 275.898 136.195 275.797 136.233C275.696 136.271 275.588 136.291 275.478 136.291Z" fill="#263238" stroke="#263238" stroke-linecap="round" stroke-linejoin="round"/>
<path d="M254.954 136.291C254.847 136.291 254.74 136.272 254.64 136.235C254.54 136.198 254.45 136.144 254.374 136.075C254.297 136.007 254.237 135.926 254.196 135.837C254.154 135.748 254.133 135.653 254.133 135.556V133.888C254.133 133.791 254.154 133.696 254.196 133.607C254.237 133.517 254.297 133.436 254.374 133.368C254.45 133.3 254.54 133.246 254.64 133.209C254.74 133.172 254.847 133.153 254.954 133.153C255.062 133.153 255.169 133.172 255.269 133.209C255.368 133.246 255.459 133.3 255.535 133.368C255.612 133.436 255.672 133.517 255.713 133.607C255.755 133.696 255.776 133.791 255.776 133.888V135.54C255.778 135.638 255.759 135.735 255.719 135.826C255.678 135.917 255.618 136 255.542 136.07C255.465 136.14 255.374 136.195 255.273 136.233C255.172 136.271 255.064 136.291 254.954 136.291Z" fill="#263238" stroke="#263238" stroke-linecap="round" stroke-linejoin="round"/>
<path d="M256.47 133.99C256.242 133.989 256.024 133.907 255.864 133.762C255.703 133.617 255.613 133.422 255.613 133.218V132.008C255.61 130.698 256.048 129.417 256.869 128.331C256.928 128.238 257.008 128.158 257.103 128.094C257.199 128.03 257.308 127.985 257.424 127.961C257.54 127.937 257.66 127.934 257.777 127.954C257.894 127.973 258.006 128.014 258.104 128.074C258.203 128.134 258.287 128.211 258.35 128.301C258.414 128.391 258.456 128.492 258.474 128.597C258.492 128.703 258.485 128.81 258.454 128.913C258.423 129.016 258.369 129.112 258.295 129.195C257.667 130.026 257.332 131.006 257.334 132.008V133.218C257.334 133.423 257.243 133.619 257.081 133.764C256.919 133.909 256.7 133.99 256.47 133.99Z" fill="#263238"/>
<path d="M273.153 129.152C273.082 129.152 273.012 129.136 272.95 129.106C272.888 129.076 272.835 129.032 272.797 128.979C272.243 128.241 271.494 127.636 270.616 127.219C269.739 126.802 268.759 126.585 267.765 126.587H262.97C261.975 126.585 260.996 126.802 260.118 127.219C259.241 127.636 258.492 128.241 257.938 128.979C257.873 129.064 257.773 129.123 257.66 129.142C257.547 129.161 257.43 129.14 257.334 129.082C257.286 129.053 257.245 129.017 257.214 128.974C257.182 128.932 257.16 128.884 257.149 128.833C257.139 128.783 257.139 128.731 257.151 128.681C257.163 128.631 257.187 128.584 257.219 128.542C257.853 127.7 258.708 127.01 259.71 126.534C260.711 126.057 261.829 125.808 262.963 125.809H267.759C268.895 125.809 270.014 126.058 271.017 126.536C272.02 127.013 272.876 127.704 273.509 128.547C273.542 128.589 273.565 128.637 273.576 128.687C273.588 128.738 273.588 128.79 273.577 128.84C273.566 128.89 273.543 128.938 273.511 128.981C273.478 129.023 273.437 129.059 273.389 129.087C273.319 129.128 273.237 129.151 273.153 129.152Z" fill="#263238"/>
<path d="M274.264 133.99C274.035 133.99 273.816 133.909 273.654 133.764C273.492 133.619 273.401 133.423 273.401 133.218V132.008C273.403 131.006 273.068 130.026 272.44 129.195C272.368 129.111 272.316 129.015 272.287 128.913C272.258 128.81 272.253 128.704 272.272 128.599C272.291 128.495 272.334 128.396 272.398 128.307C272.462 128.218 272.545 128.142 272.643 128.083C272.742 128.024 272.852 127.984 272.968 127.965C273.085 127.945 273.204 127.948 273.319 127.972C273.434 127.995 273.543 128.04 273.638 128.103C273.733 128.166 273.812 128.245 273.872 128.336C274.691 129.421 275.127 130.7 275.122 132.008V133.218C275.122 133.422 275.032 133.617 274.871 133.762C274.71 133.907 274.492 133.989 274.264 133.99Z" fill="#263238"/>
<path d="M256.579 137.381C256.127 137.381 255.694 137.221 255.375 136.935C255.055 136.65 254.876 136.262 254.876 135.859V133.439C254.876 133.036 255.055 132.648 255.375 132.363C255.694 132.077 256.127 131.917 256.579 131.917C257.031 131.917 257.464 132.077 257.784 132.363C258.103 132.648 258.282 133.036 258.282 133.439V135.859C258.282 136.262 258.103 136.65 257.784 136.935C257.464 137.221 257.031 137.381 256.579 137.381Z" fill="white" stroke="#263238" stroke-linecap="round" stroke-linejoin="round"/>
<path d="M256.754 131.917H256.404V137.381H256.754V131.917Z" fill="#0075BB" stroke="#263238" stroke-linecap="round" stroke-linejoin="round"/>
<path d="M275.654 133.439C275.654 132.598 274.891 131.917 273.95 131.917C273.01 131.917 272.247 132.598 272.247 133.439V135.859C272.247 136.7 273.01 137.381 273.95 137.381C274.891 137.381 275.654 136.7 275.654 135.859V133.439Z" fill="white" stroke="#263238" stroke-linecap="round" stroke-linejoin="round"/>
<path d="M274.125 131.917H273.775V137.381H274.125V131.917Z" fill="#0075BB" stroke="#263238" stroke-linecap="round" stroke-linejoin="round"/>
<path d="M265.355 131.42C265.955 131.418 266.545 131.282 267.073 131.026C267.6 130.77 268.047 130.4 268.375 129.951L269.118 128.92C267.941 128.337 266.615 128.036 265.269 128.045C263.923 128.055 262.603 128.374 261.435 128.974L262.547 130.216C262.885 130.59 263.313 130.893 263.799 131.101C264.285 131.31 264.816 131.418 265.355 131.42Z" fill="#0075BB" stroke="#263238" stroke-linecap="round" stroke-linejoin="round"/>
<path d="M265.416 138.067C265.486 138.067 265.543 138.016 265.543 137.954C265.543 137.891 265.486 137.84 265.416 137.84C265.346 137.84 265.289 137.891 265.289 137.954C265.289 138.016 265.346 138.067 265.416 138.067Z" fill="#263238"/>
<path d="M265.543 138.348C265.541 138.319 265.527 138.291 265.503 138.271C265.48 138.251 265.448 138.24 265.416 138.24C265.399 138.239 265.383 138.242 265.368 138.247C265.352 138.252 265.338 138.26 265.326 138.27C265.315 138.28 265.305 138.292 265.299 138.305C265.292 138.319 265.289 138.333 265.289 138.348C265.289 138.378 265.302 138.407 265.326 138.428C265.35 138.449 265.382 138.461 265.416 138.461C265.449 138.461 265.482 138.449 265.505 138.428C265.529 138.407 265.543 138.378 265.543 138.348Z" fill="#263238"/>
<path d="M265.041 138.289C265.073 138.28 265.1 138.26 265.116 138.234C265.132 138.208 265.135 138.177 265.126 138.148C265.114 138.12 265.09 138.097 265.06 138.083C265.03 138.069 264.996 138.065 264.963 138.073C264.931 138.081 264.904 138.101 264.888 138.127C264.872 138.153 264.869 138.184 264.878 138.213C264.89 138.241 264.914 138.264 264.944 138.278C264.974 138.292 265.008 138.296 265.041 138.289Z" fill="#263238"/>
<path d="M265.832 138.289C265.864 138.28 265.891 138.26 265.907 138.234C265.923 138.208 265.926 138.177 265.917 138.148C265.906 138.119 265.883 138.095 265.852 138.081C265.822 138.067 265.787 138.064 265.754 138.073C265.738 138.077 265.724 138.084 265.711 138.093C265.698 138.103 265.688 138.114 265.681 138.128C265.674 138.141 265.669 138.155 265.668 138.17C265.667 138.184 265.67 138.199 265.675 138.213C265.685 138.241 265.707 138.265 265.737 138.28C265.766 138.294 265.8 138.297 265.832 138.289Z" fill="#263238"/>
<path d="M249.38 74.601H201.319V55.458V50.382L207.003 55.458H249.38V74.601Z" fill="#D6D6D6" stroke="#263238" stroke-linecap="round" stroke-linejoin="round"/>
<path d="M249.38 102.33H201.319V83.1923V78.1163L207.003 83.1923H249.38V102.33Z" fill="#D6D6D6" stroke="#263238" stroke-linecap="round" stroke-linejoin="round"/>
<path d="M233.41 62.046H244.723" stroke="#263238" stroke-linecap="round" stroke-linejoin="round"/>
<path d="M217.579 62.046H230.505" stroke="#263238" stroke-linecap="round" stroke-linejoin="round"/>
<path d="M207.885 62.046H215.314" stroke="#263238" stroke-linecap="round" stroke-linejoin="round"/>
<path d="M228.24 65.2266H244.723" stroke="#263238" stroke-linecap="round" stroke-linejoin="round"/>
<path d="M207.885 65.2266H225.334" stroke="#263238" stroke-linecap="round" stroke-linejoin="round"/>
<path d="M241.491 68.4017H244.723" stroke="#263238" stroke-linecap="round" stroke-linejoin="round"/>
<path d="M223.395 68.4017H238.906" stroke="#263238" stroke-linecap="round" stroke-linejoin="round"/>
<path d="M207.885 68.4017H220.81" stroke="#263238" stroke-linecap="round" stroke-linejoin="round"/>
<path d="M233.41 88.911H244.723" stroke="#263238" stroke-linecap="round" stroke-linejoin="round"/>
<path d="M217.579 88.911H230.505" stroke="#263238" stroke-linecap="round" stroke-linejoin="round"/>
<path d="M207.885 88.911H215.314" stroke="#263238" stroke-linecap="round" stroke-linejoin="round"/>
<path d="M228.24 92.0916H244.723" stroke="#263238" stroke-linecap="round" stroke-linejoin="round"/>
<path d="M207.885 92.0916H225.334" stroke="#263238" stroke-linecap="round" stroke-linejoin="round"/>
<path d="M241.491 95.2668H244.723" stroke="#263238" stroke-linecap="round" stroke-linejoin="round"/>
<path d="M223.395 95.2668H238.906" stroke="#263238" stroke-linecap="round" stroke-linejoin="round"/>
<path d="M207.885 95.2668H220.81" stroke="#263238" stroke-linecap="round" stroke-linejoin="round"/>
<path d="M201.319 180.311H249.38V134.017V128.941L243.696 134.017H201.319V180.311Z" fill="#0075BB" stroke="#263238" stroke-linecap="round" stroke-linejoin="round"/>
<path d="M233.41 140.335H244.723" stroke="#263238" stroke-linecap="round" stroke-linejoin="round"/>
<path d="M217.579 140.335H230.505" stroke="#263238" stroke-linecap="round" stroke-linejoin="round"/>
<path d="M207.885 140.335H215.314" stroke="#263238" stroke-linecap="round" stroke-linejoin="round"/>
<path d="M228.24 143.51H244.723" stroke="#263238" stroke-linecap="round" stroke-linejoin="round"/>
<path d="M207.885 143.51H225.334" stroke="#263238" stroke-linecap="round" stroke-linejoin="round"/>
<path d="M241.491 146.691H244.723" stroke="#263238" stroke-linecap="round" stroke-linejoin="round"/>
<path d="M223.395 146.691H238.906" stroke="#263238" stroke-linecap="round" stroke-linejoin="round"/>
<path d="M207.885 146.691H220.81" stroke="#263238" stroke-linecap="round" stroke-linejoin="round"/>
<path d="M233.41 149.288H244.723" stroke="#263238" stroke-linecap="round" stroke-linejoin="round"/>
<path d="M217.579 149.288H230.505" stroke="#263238" stroke-linecap="round" stroke-linejoin="round"/>
<path d="M207.885 149.288H215.314" stroke="#263238" stroke-linecap="round" stroke-linejoin="round"/>
<path d="M228.24 152.469H244.723" stroke="#263238" stroke-linecap="round" stroke-linejoin="round"/>
<path d="M207.885 152.469H225.334" stroke="#263238" stroke-linecap="round" stroke-linejoin="round"/>
<path d="M241.491 155.644H244.723" stroke="#263238" stroke-linecap="round" stroke-linejoin="round"/>
<path d="M223.395 155.644H238.906" stroke="#263238" stroke-linecap="round" stroke-linejoin="round"/>
<path d="M207.885 155.644H220.81" stroke="#263238" stroke-linecap="round" stroke-linejoin="round"/>
<path d="M233.41 158.247H244.723" stroke="#263238" stroke-linecap="round" stroke-linejoin="round"/>
<path d="M217.579 158.247H230.505" stroke="#263238" stroke-linecap="round" stroke-linejoin="round"/>
<path d="M207.885 158.247H215.314" stroke="#263238" stroke-linecap="round" stroke-linejoin="round"/>
<path d="M228.24 161.422H244.723" stroke="#263238" stroke-linecap="round" stroke-linejoin="round"/>
<path d="M207.885 161.422H225.334" stroke="#263238" stroke-linecap="round" stroke-linejoin="round"/>
<path d="M241.491 164.603H244.723" stroke="#263238" stroke-linecap="round" stroke-linejoin="round"/>
<path d="M223.395 164.603H238.906" stroke="#263238" stroke-linecap="round" stroke-linejoin="round"/>
<path d="M207.885 164.603H220.81" stroke="#263238" stroke-linecap="round" stroke-linejoin="round"/>
<path d="M233.41 167.2H244.723" stroke="#263238" stroke-linecap="round" stroke-linejoin="round"/>
<path d="M217.579 167.2H230.505" stroke="#263238" stroke-linecap="round" stroke-linejoin="round"/>
<path d="M207.885 167.2H215.314" stroke="#263238" stroke-linecap="round" stroke-linejoin="round"/>
<path d="M228.24 170.381H244.723" stroke="#263238" stroke-linecap="round" stroke-linejoin="round"/>
<path d="M207.885 170.381H225.334" stroke="#263238" stroke-linecap="round" stroke-linejoin="round"/>
<path d="M241.491 173.556H244.723" stroke="#263238" stroke-linecap="round" stroke-linejoin="round"/>
<path d="M223.395 173.556H238.906" stroke="#263238" stroke-linecap="round" stroke-linejoin="round"/>
<path d="M207.885 173.556H220.81" stroke="#263238" stroke-linecap="round" stroke-linejoin="round"/>
<path d="M265.216 206.053C272.335 206.053 278.106 200.894 278.106 194.53C278.106 188.165 272.335 183.006 265.216 183.006C258.098 183.006 252.327 188.165 252.327 194.53C252.327 200.894 258.098 206.053 265.216 206.053Z" stroke="#263238" stroke-linecap="round" stroke-linejoin="round"/>
<path d="M269.614 197.926C269.615 198.685 269.364 199.426 268.894 200.058C268.423 200.689 267.754 201.181 266.97 201.472C266.187 201.763 265.324 201.84 264.492 201.693C263.66 201.545 262.895 201.18 262.295 200.644C261.695 200.109 261.286 199.425 261.12 198.682C260.954 197.938 261.038 197.166 261.363 196.466C261.687 195.765 262.237 195.166 262.942 194.744C263.647 194.323 264.477 194.098 265.325 194.098C266.461 194.098 267.551 194.501 268.355 195.219C269.159 195.936 269.612 196.91 269.614 197.926Z" fill="#0075BB" stroke="#263238" stroke-linecap="round" stroke-linejoin="round"/>
<path d="M271.456 200.48C272.381 199.448 272.961 198.203 273.129 196.889C273.297 195.575 273.047 194.245 272.406 193.052C271.766 191.86 270.762 190.853 269.51 190.149C268.257 189.445 266.808 189.071 265.328 189.071C263.849 189.071 262.399 189.445 261.147 190.149C259.894 190.853 258.89 191.86 258.25 193.052C257.609 194.245 257.359 195.575 257.527 196.889C257.695 198.203 258.275 199.448 259.201 200.48H271.456Z" fill="white" stroke="#263238" stroke-linecap="round" stroke-linejoin="round"/>
<path d="M268.387 198.493H262.07C261.7 198.493 261.334 198.428 260.992 198.302C260.651 198.175 260.341 197.99 260.079 197.756C259.818 197.522 259.611 197.245 259.469 196.94C259.328 196.634 259.255 196.307 259.255 195.977C259.255 195.646 259.328 195.319 259.469 195.014C259.611 194.708 259.818 194.431 260.079 194.197C260.341 193.964 260.651 193.778 260.992 193.652C261.334 193.525 261.7 193.46 262.07 193.46H268.387C268.757 193.46 269.123 193.525 269.465 193.652C269.806 193.778 270.116 193.964 270.378 194.197C270.639 194.431 270.846 194.708 270.988 195.014C271.129 195.319 271.202 195.646 271.202 195.977C271.202 196.644 270.905 197.284 270.378 197.756C269.85 198.228 269.134 198.493 268.387 198.493Z" fill="#0075BB" stroke="#263238" stroke-linecap="round" stroke-linejoin="round"/>
<path d="M260.547 195.772C260.677 195.448 260.913 195.166 261.224 194.964C261.536 194.762 261.908 194.649 262.293 194.64C262.678 194.63 263.057 194.725 263.38 194.912C263.703 195.098 263.956 195.368 264.105 195.685" stroke="#263238" stroke-width="2" stroke-linecap="round" stroke-linejoin="round"/>
<path d="M266.455 195.772C266.584 195.448 266.82 195.166 267.131 194.964C267.443 194.762 267.816 194.649 268.2 194.64C268.585 194.63 268.964 194.725 269.287 194.912C269.611 195.098 269.863 195.368 270.012 195.685" stroke="#263238" stroke-width="2" stroke-linecap="round" stroke-linejoin="round"/>
<path d="M264.292 196.938C264.32 197.175 264.446 197.395 264.644 197.555C264.843 197.714 265.1 197.803 265.367 197.803C265.634 197.803 265.892 197.714 266.09 197.555C266.289 197.395 266.414 197.175 266.443 196.938H264.292Z" fill="white" stroke="#263238" stroke-linecap="round" stroke-linejoin="round"/>
<path d="M275.478 197.338C275.26 197.338 275.052 197.26 274.898 197.122C274.743 196.985 274.657 196.798 274.657 196.603V194.94C274.657 194.745 274.743 194.558 274.898 194.421C275.052 194.283 275.26 194.206 275.478 194.206C275.696 194.206 275.905 194.283 276.059 194.421C276.213 194.558 276.3 194.745 276.3 194.94V196.609C276.298 196.802 276.211 196.988 276.057 197.124C275.903 197.261 275.695 197.338 275.478 197.338Z" fill="#263238" stroke="#263238" stroke-linecap="round" stroke-linejoin="round"/>
<path d="M254.954 197.338C254.737 197.338 254.528 197.26 254.374 197.122C254.22 196.985 254.133 196.798 254.133 196.603V194.94C254.133 194.745 254.22 194.558 254.374 194.421C254.528 194.283 254.737 194.206 254.954 194.206C255.172 194.206 255.381 194.283 255.535 194.421C255.689 194.558 255.776 194.745 255.776 194.94V196.609C255.774 196.802 255.687 196.988 255.533 197.124C255.379 197.261 255.171 197.338 254.954 197.338Z" fill="#263238" stroke="#263238" stroke-linecap="round" stroke-linejoin="round"/>
<path d="M256.47 195.043C256.242 195.041 256.024 194.959 255.864 194.815C255.703 194.67 255.613 194.474 255.613 194.27V193.055C255.611 191.745 256.049 190.464 256.869 189.378C257.005 189.226 257.2 189.126 257.414 189.096C257.629 189.067 257.849 189.112 258.029 189.221C258.209 189.33 258.336 189.496 258.385 189.685C258.434 189.874 258.402 190.073 258.295 190.242C257.667 191.073 257.332 192.053 257.334 193.055V194.27C257.334 194.475 257.243 194.672 257.081 194.816C256.919 194.961 256.7 195.043 256.47 195.043Z" fill="#263238"/>
<path d="M273.153 190.199C273.083 190.199 273.014 190.183 272.952 190.154C272.89 190.125 272.837 190.083 272.797 190.031C272.244 189.292 271.495 188.687 270.617 188.268C269.74 187.85 268.76 187.632 267.765 187.634H262.97C261.976 187.634 260.998 187.853 260.121 188.27C259.244 188.687 258.494 189.29 257.938 190.026C257.906 190.068 257.866 190.104 257.819 190.131C257.771 190.159 257.719 190.178 257.663 190.188C257.607 190.198 257.55 190.197 257.495 190.187C257.44 190.177 257.387 190.157 257.34 190.129C257.293 190.1 257.253 190.064 257.222 190.022C257.191 189.979 257.17 189.932 257.159 189.883C257.148 189.833 257.149 189.782 257.16 189.732C257.172 189.683 257.194 189.636 257.225 189.594C257.859 188.752 258.714 188.063 259.716 187.586C260.717 187.11 261.835 186.861 262.97 186.862H267.765C268.901 186.862 270.02 187.112 271.022 187.589C272.025 188.067 272.881 188.757 273.515 189.599C273.548 189.642 273.571 189.689 273.582 189.74C273.594 189.79 273.594 189.842 273.583 189.892C273.572 189.943 273.549 189.99 273.517 190.033C273.484 190.075 273.443 190.112 273.395 190.139C273.322 190.18 273.238 190.201 273.153 190.199Z" fill="#263238"/>
<path d="M274.264 195.043C274.035 195.043 273.816 194.961 273.654 194.816C273.492 194.672 273.401 194.475 273.401 194.27V193.055C273.402 192.054 273.067 191.076 272.44 190.247C272.374 190.163 272.328 190.068 272.303 189.968C272.279 189.868 272.277 189.764 272.298 189.664C272.319 189.563 272.362 189.467 272.425 189.381C272.487 189.295 272.569 189.221 272.664 189.164C272.759 189.106 272.866 189.066 272.979 189.046C273.091 189.026 273.207 189.027 273.319 189.047C273.432 189.067 273.539 189.108 273.633 189.165C273.728 189.223 273.809 189.297 273.872 189.383C274.69 190.468 275.126 191.747 275.122 193.055V194.27C275.122 194.474 275.032 194.67 274.871 194.814C274.71 194.959 274.492 195.041 274.264 195.043Z" fill="#263238"/>
<path d="M256.579 198.434C256.127 198.434 255.694 198.273 255.375 197.988C255.055 197.702 254.876 197.315 254.876 196.911V194.486C254.876 194.083 255.055 193.695 255.375 193.41C255.694 193.124 256.127 192.964 256.579 192.964C257.031 192.964 257.464 193.124 257.784 193.41C258.103 193.695 258.282 194.083 258.282 194.486V196.911C258.281 197.314 258.101 197.701 257.782 197.986C257.463 198.272 257.03 198.432 256.579 198.434Z" fill="white" stroke="#263238" stroke-linecap="round" stroke-linejoin="round"/>
<path d="M256.754 192.964H256.404V198.428H256.754V192.964Z" fill="#0075BB" stroke="#263238" stroke-linecap="round" stroke-linejoin="round"/>
<path d="M275.654 194.486C275.654 193.645 274.891 192.964 273.95 192.964C273.01 192.964 272.247 193.645 272.247 194.486V196.906C272.247 197.747 273.01 198.428 273.95 198.428C274.891 198.428 275.654 197.747 275.654 196.906V194.486Z" fill="white" stroke="#263238" stroke-linecap="round" stroke-linejoin="round"/>
<path d="M274.125 192.964H273.775V198.428H274.125V192.964Z" fill="#0075BB" stroke="#263238" stroke-linecap="round" stroke-linejoin="round"/>
<path d="M265.355 192.467C265.955 192.465 266.545 192.329 267.073 192.073C267.6 191.817 268.047 191.447 268.375 190.998L269.118 189.972C267.94 189.391 266.615 189.09 265.27 189.099C263.924 189.107 262.604 189.425 261.435 190.021L262.547 191.263C262.885 191.637 263.313 191.94 263.799 192.148C264.285 192.357 264.816 192.465 265.355 192.467Z" fill="#0075BB" stroke="#263238" stroke-linecap="round" stroke-linejoin="round"/>
<path d="M265.416 199.114C265.486 199.114 265.543 199.063 265.543 199.001C265.543 198.938 265.486 198.887 265.416 198.887C265.346 198.887 265.289 198.938 265.289 199.001C265.289 199.063 265.346 199.114 265.416 199.114Z" fill="#263238"/>
<path d="M265.416 199.514C265.486 199.514 265.543 199.463 265.543 199.4C265.543 199.338 265.486 199.287 265.416 199.287C265.346 199.287 265.289 199.338 265.289 199.4C265.289 199.463 265.346 199.514 265.416 199.514Z" fill="#263238"/>
<path d="M265.041 199.336C265.073 199.327 265.1 199.307 265.116 199.281C265.132 199.255 265.135 199.224 265.126 199.195C265.114 199.167 265.09 199.144 265.06 199.13C265.03 199.116 264.996 199.112 264.963 199.12C264.932 199.13 264.906 199.149 264.89 199.175C264.875 199.201 264.87 199.231 264.878 199.26C264.883 199.275 264.891 199.289 264.902 199.3C264.913 199.312 264.926 199.322 264.942 199.329C264.957 199.336 264.974 199.34 264.991 199.342C265.008 199.343 265.025 199.341 265.041 199.336Z" fill="#263238"/>
<path d="M265.832 199.336C265.864 199.327 265.891 199.307 265.907 199.281C265.923 199.255 265.926 199.224 265.917 199.195C265.906 199.166 265.883 199.142 265.852 199.128C265.822 199.114 265.787 199.111 265.754 199.12C265.738 199.124 265.724 199.131 265.711 199.14C265.698 199.15 265.688 199.161 265.681 199.175C265.674 199.188 265.669 199.202 265.668 199.217C265.667 199.231 265.67 199.246 265.675 199.26C265.68 199.274 265.687 199.288 265.697 199.3C265.708 199.312 265.721 199.322 265.735 199.329C265.75 199.336 265.766 199.34 265.783 199.341C265.8 199.342 265.817 199.34 265.832 199.336Z" fill="#263238"/>
<path d="M201.319 222.388H249.38V195.064V189.988L243.696 195.064H201.319V222.388Z" fill="#0075BB" stroke="#263238" stroke-linecap="round" stroke-linejoin="round"/>
<path d="M233.41 201.382H244.723" stroke="#263238" stroke-linecap="round" stroke-linejoin="round"/>
<path d="M217.579 201.382H230.505" stroke="#263238" stroke-linecap="round" stroke-linejoin="round"/>
<path d="M207.885 201.382H215.314" stroke="#263238" stroke-linecap="round" stroke-linejoin="round"/>
<path d="M228.24 204.563H244.723" stroke="#263238" stroke-linecap="round" stroke-linejoin="round"/>
<path d="M207.885 204.563H225.334" stroke="#263238" stroke-linecap="round" stroke-linejoin="round"/>
<path d="M241.491 207.738H244.723" stroke="#263238" stroke-linecap="round" stroke-linejoin="round"/>
<path d="M223.395 207.738H238.906" stroke="#263238" stroke-linecap="round" stroke-linejoin="round"/>
<path d="M207.885 207.738H220.81" stroke="#263238" stroke-linecap="round" stroke-linejoin="round"/>
<path d="M233.41 210.341H244.723" stroke="#263238" stroke-linecap="round" stroke-linejoin="round"/>
<path d="M217.579 210.341H230.505" stroke="#263238" stroke-linecap="round" stroke-linejoin="round"/>
<path d="M207.885 210.341H215.314" stroke="#263238" stroke-linecap="round" stroke-linejoin="round"/>
<path d="M228.24 213.516H244.723" stroke="#263238" stroke-linecap="round" stroke-linejoin="round"/>
<path d="M207.885 213.516H225.334" stroke="#263238" stroke-linecap="round" stroke-linejoin="round"/>
<path d="M241.491 216.691H244.723" stroke="#263238" stroke-linecap="round" stroke-linejoin="round"/>
<path d="M223.395 216.691H238.906" stroke="#263238" stroke-linecap="round" stroke-linejoin="round"/>
<path d="M207.885 216.691H220.81" stroke="#263238" stroke-linecap="round" stroke-linejoin="round"/>
<path d="M273.612 30.0132H248.679C248.417 31.2477 247.683 32.3621 246.601 33.1645C245.52 33.9668 244.159 34.4068 242.754 34.4088H207.057C205.652 34.4068 204.291 33.9668 203.21 33.1645C202.128 32.3621 201.393 31.2477 201.132 30.0132H176.229C174.147 30.0132 172.149 30.7528 170.677 32.0693C169.204 33.3858 168.377 35.1714 168.377 37.0332V225.493C168.377 227.355 169.204 229.141 170.677 230.457C172.149 231.774 174.147 232.513 176.229 232.513H273.612C275.694 232.513 277.692 231.774 279.164 230.457C280.637 229.141 281.464 227.355 281.464 225.493V37.0332C281.464 35.1714 280.637 33.3858 279.164 32.0693C277.692 30.7528 275.694 30.0132 273.612 30.0132Z" stroke="#263238" stroke-width="2" stroke-linecap="round" stroke-linejoin="round"/>
<path d="M281.464 42.7302V37.0386C281.464 35.1768 280.637 33.3912 279.164 32.0747C277.692 30.7582 275.694 30.0186 273.612 30.0186H248.679C248.417 31.2531 247.683 32.3675 246.601 33.1699C245.52 33.9722 244.159 34.4122 242.754 34.4142H207.057C205.651 34.412 204.29 33.9712 203.208 33.1678C202.126 32.3644 201.392 31.2487 201.132 30.0132H176.229C174.147 30.0132 172.149 30.7528 170.677 32.0693C169.204 33.3858 168.377 35.1714 168.377 37.0332V42.7302H281.464Z" stroke="#263238" stroke-width="2" stroke-linecap="round" stroke-linejoin="round"/>
<path d="M178.736 35.1C178.736 36.4824 176.996 36.9792 176.99 38.0322V38.1024H178.675V38.5722H176.428V38.178C176.428 36.72 178.18 36.4068 178.18 35.1C178.18 34.6248 178.005 34.3764 177.576 34.3764C177.147 34.3764 176.972 34.6464 176.972 35.0514V35.4564H176.44V35.1C176.44 34.398 176.797 33.9336 177.588 33.9336C178.379 33.9336 178.736 34.398 178.736 35.1Z" fill="#263238"/>
<path d="M181.538 35.0999V35.2187C181.564 35.4126 181.519 35.6088 181.41 35.778C181.302 35.9473 181.135 36.0807 180.934 36.1583C181.137 36.2365 181.305 36.3716 181.414 36.5431C181.523 36.7146 181.567 36.9132 181.538 37.1087V37.4597C181.538 38.1617 181.17 38.6207 180.385 38.6207C179.599 38.6207 179.231 38.1617 179.231 37.4597V37.1465H179.769V37.4921C179.769 37.9079 179.956 38.1563 180.373 38.1563C180.789 38.1563 180.977 37.9133 180.977 37.4489V37.0979C180.977 36.6443 180.759 36.4283 180.33 36.4121H179.992V35.9585H180.33C180.419 35.9597 180.507 35.9433 180.588 35.9107C180.669 35.878 180.741 35.8298 180.798 35.7694C180.856 35.7091 180.898 35.6382 180.921 35.5617C180.945 35.4851 180.949 35.4049 180.934 35.3267V35.0999C180.934 34.6301 180.747 34.3871 180.33 34.3871C179.913 34.3871 179.726 34.6409 179.726 35.0567V35.2943H179.189V35.0999C179.189 34.3979 179.557 33.9443 180.342 33.9443C181.128 33.9443 181.538 34.3925 181.538 35.0999Z" fill="#263238"/>
<path d="M182.644 35.4402V36.0774H182.094V35.4402H182.644ZM182.644 37.935V38.5722H182.094V37.935H182.644Z" fill="#263238"/>
<path d="M183.803 35.8505C183.878 35.7305 183.989 35.6316 184.124 35.5648C184.258 35.4981 184.411 35.4661 184.564 35.4726C185.223 35.4726 185.519 35.9046 185.519 36.5526V37.4489C185.519 38.1509 185.144 38.6099 184.359 38.6099C183.574 38.6099 183.211 38.1509 183.211 37.4489V37.1411H183.743V37.4814C183.743 37.8972 183.936 38.1455 184.347 38.1455C184.758 38.1455 184.951 37.8972 184.951 37.4814V36.6011C184.951 36.1853 184.764 35.937 184.347 35.937C184.27 35.9301 184.193 35.9378 184.12 35.9594C184.047 35.9811 183.979 36.0162 183.923 36.0625C183.866 36.1088 183.82 36.1653 183.789 36.2284C183.758 36.2914 183.742 36.3595 183.743 36.4283V36.531H183.205L183.344 33.9875H185.368V34.4466H183.858L183.803 35.8505Z" fill="#263238"/>
<path d="M188.363 35.1V35.181H187.844V35.0622C187.844 34.6518 187.651 34.4088 187.24 34.4088C186.829 34.4088 186.636 34.6572 186.636 35.1486V36.18C186.695 36.0285 186.808 35.8985 186.957 35.8098C187.107 35.721 187.284 35.6785 187.463 35.6886C188.122 35.6886 188.418 36.1098 188.418 36.7686V37.4598C188.418 38.1618 188.031 38.6208 187.246 38.6208C186.461 38.6208 186.032 38.1564 186.032 37.4544V35.1C186.032 34.371 186.394 33.9174 187.21 33.9174C188.025 33.9174 188.363 34.3872 188.363 35.1ZM186.6 36.8118V37.4976C186.6 37.9134 186.793 38.1618 187.204 38.1618C187.614 38.1618 187.808 37.9134 187.808 37.4976V36.801C187.808 36.3906 187.608 36.1422 187.204 36.1422C186.799 36.1422 186.6 36.3906 186.6 36.801V36.8118Z" fill="#263238"/>
<path d="M251.669 35.2889H250.219V38.5235H251.669V35.2889Z" fill="#263238"/>
<path d="M253.601 34.641H252.152V38.5236H253.601V34.641Z" fill="#263238"/>
<path d="M255.528 34.182H254.079V38.5236H255.528V34.182Z" fill="#263238"/>
<path d="M257.461 33.3774H256.011V38.5236H257.461V33.3774Z" fill="#263238"/>
<path d="M275.37 38.4318H266.684V33.6906H275.37V38.4318ZM267.167 38.0052H274.886V34.1226H267.167V38.0052Z" fill="#263238"/>
<path d="M272.476 34.5924H267.892V37.5354H272.476V34.5924Z" fill="#263238"/>
<path d="M276.161 35.505H275.068V36.6228H276.161V35.505Z" fill="#263238"/>
<path d="M263.501 37.4004C263.444 37.4014 263.387 37.3883 263.338 37.3626C261.568 36.423 260.403 37.2924 260.354 37.3302C260.323 37.3588 260.285 37.3812 260.243 37.3962C260.202 37.4111 260.157 37.4182 260.112 37.417C260.068 37.4159 260.023 37.4064 259.983 37.3894C259.942 37.3723 259.906 37.3479 259.877 37.3178C259.847 37.2876 259.825 37.2524 259.811 37.2142C259.798 37.176 259.793 37.1357 259.797 37.0958C259.802 37.0559 259.816 37.0173 259.838 36.9824C259.86 36.9475 259.89 36.917 259.925 36.8928C259.986 36.8442 261.484 35.6994 263.67 36.8604C263.742 36.9016 263.794 36.9662 263.814 37.0407C263.835 37.1152 263.822 37.1938 263.779 37.26C263.75 37.3031 263.71 37.3388 263.661 37.3634C263.612 37.388 263.557 37.4008 263.501 37.4004Z" fill="#263238"/>
<path d="M264.153 36.4283C264.096 36.4273 264.039 36.4124 263.99 36.3851C261.435 35.0297 259.714 36.3419 259.696 36.3527C259.664 36.3776 259.627 36.3965 259.587 36.4086C259.547 36.4207 259.505 36.4256 259.463 36.4231C259.421 36.4206 259.38 36.4107 259.342 36.394C259.304 36.3773 259.271 36.3541 259.243 36.3257C259.215 36.2974 259.194 36.2644 259.18 36.2287C259.167 36.193 259.161 36.1553 259.164 36.1176C259.167 36.08 259.178 36.0433 259.197 36.0095C259.215 35.9757 259.241 35.9456 259.273 35.9207C259.273 35.9207 261.363 34.3007 264.322 35.8883C264.396 35.9286 264.449 35.9932 264.469 36.0681C264.489 36.143 264.476 36.222 264.431 36.2879C264.402 36.3307 264.361 36.366 264.313 36.3906C264.264 36.4152 264.209 36.4282 264.153 36.4283Z" fill="#263238"/>
<path d="M264.751 35.2997C264.692 35.2987 264.633 35.2838 264.582 35.2565C261.345 33.5393 259.195 35.1593 259.104 35.2295C259.038 35.2739 258.956 35.2944 258.874 35.2869C258.792 35.2794 258.716 35.2444 258.662 35.189C258.608 35.1336 258.579 35.0619 258.581 34.9883C258.584 34.9147 258.617 34.8446 258.675 34.7921C258.705 34.7921 261.26 32.8157 264.914 34.7597C264.951 34.7792 264.984 34.805 265.009 34.8357C265.035 34.8663 265.054 34.9012 265.064 34.9383C265.075 34.9754 265.077 35.014 265.071 35.0519C265.065 35.0899 265.051 35.1264 265.029 35.1593C265 35.2017 264.959 35.2368 264.91 35.2613C264.862 35.2859 264.807 35.2991 264.751 35.2997Z" fill="#263238"/>
<path d="M262.523 37.8863C262.524 38.031 262.477 38.1727 262.388 38.2934C262.299 38.4141 262.171 38.5083 262.022 38.5642C261.873 38.62 261.708 38.6349 261.55 38.607C261.391 38.579 261.245 38.5095 261.131 38.4072C261.016 38.3049 260.938 38.1745 260.907 38.0326C260.876 37.8907 260.893 37.7437 260.955 37.6103C261.017 37.4768 261.123 37.363 261.258 37.2833C261.393 37.2037 261.551 37.1617 261.713 37.1627C261.928 37.1627 262.134 37.239 262.286 37.3747C262.437 37.5104 262.523 37.6944 262.523 37.8863Z" fill="#263238"/>
<path d="M272.404 241.115H285.088" stroke="#263238" stroke-linecap="round" stroke-linejoin="round"/>
<path d="M33.22 241.115H268.176" stroke="#263238" stroke-linecap="round" stroke-linejoin="round"/>
<path d="M16.7006 241.115H25.368" stroke="#263238" stroke-linecap="round" stroke-linejoin="round"/>
<path d="M103.695 168.394H94.4656V240.106H103.695V168.394Z" fill="#263238" stroke="#263238" stroke-linecap="round" stroke-linejoin="round"/>
<path d="M30.5141 194.362V199.406H67.2977V194.362H30.5141Z" fill="#263238" stroke="#263238" stroke-linecap="round" stroke-linejoin="round"/>
<path d="M34.2951 176.953H28.6538V197.132H34.2951V176.953Z" fill="#263238" stroke="#263238" stroke-linecap="round" stroke-linejoin="round"/>
<path d="M36.6447 197.219C36.6447 197.826 36.5109 198.426 36.251 198.987C35.9911 199.548 35.6102 200.057 35.13 200.486C34.6498 200.914 34.0798 201.254 33.4525 201.486C32.8253 201.718 32.1531 201.837 31.4744 201.836C31.3053 201.836 31.1362 201.836 30.9731 201.836C30.0324 201.753 29.1351 201.441 28.379 200.933C27.6228 200.426 27.0366 199.743 26.6842 198.959C26.3318 198.175 26.2267 197.319 26.3802 196.485C26.5337 195.651 26.94 194.871 27.555 194.229C28.1699 193.587 28.9699 193.108 29.868 192.844C30.7661 192.581 31.7279 192.542 32.6489 192.733C33.5698 192.924 34.4146 193.336 35.0914 193.927C35.7682 194.517 36.2511 195.261 36.4876 196.079C36.5908 196.452 36.6435 196.835 36.6447 197.219Z" fill="white" stroke="#263238" stroke-linecap="round" stroke-linejoin="round"/>
<path d="M37.0252 180.063C37.022 181.288 36.4761 182.461 35.507 183.326C34.5379 184.192 33.2247 184.679 31.855 184.68C31.6858 184.68 31.5167 184.68 31.3476 184.68C30.4064 184.599 29.5079 184.289 28.75 183.784C27.992 183.279 27.4036 182.597 27.0487 181.814C26.6938 181.03 26.586 180.175 26.7371 179.34C26.8882 178.506 27.2923 177.724 27.9055 177.081C28.5187 176.437 29.3176 175.957 30.2151 175.691C31.1127 175.425 32.0746 175.384 32.9962 175.573C33.9178 175.762 34.7639 176.173 35.4423 176.762C36.1207 177.351 36.6055 178.095 36.844 178.913C36.96 179.288 37.0209 179.674 37.0252 180.063Z" fill="white" stroke="#263238" stroke-linecap="round" stroke-linejoin="round"/>
<path d="M46.2826 167.535L38.7629 171.155L40.3206 173.741L47.8404 170.121L46.2826 167.535Z" fill="#263238" stroke="#263238" stroke-linecap="round" stroke-linejoin="round"/>
<path d="M49.0871 170.403L45.3846 172.184L43.0169 168.259L46.7254 166.471C47.0164 166.329 47.3364 166.24 47.6665 166.209C47.9966 166.179 48.3301 166.208 48.6476 166.294C48.965 166.381 49.2598 166.523 49.5147 166.713C49.7697 166.903 49.9795 167.137 50.132 167.4C50.4351 167.923 50.4953 168.531 50.2997 169.093C50.1041 169.655 49.6683 170.126 49.0871 170.403Z" fill="white" stroke="#263238" stroke-linecap="round" stroke-linejoin="round"/>
<path d="M32.8576 153.754L32.5918 167.449L29.3121 167.4L29.5718 153.706L32.8576 153.754Z" fill="#263238" stroke="#263238" stroke-linecap="round" stroke-linejoin="round"/>
<path d="M33.7455 152.928L33.679 156.708L28.69 156.6L28.7564 152.82C28.7619 152.527 28.8319 152.238 28.9624 151.969C29.0929 151.701 29.2813 151.458 29.5169 151.254C29.7524 151.05 30.0306 150.89 30.3354 150.783C30.6402 150.675 30.9656 150.623 31.2932 150.628C31.6242 150.632 31.9509 150.695 32.2543 150.813C32.5576 150.932 32.8315 151.103 33.0598 151.317C33.2882 151.532 33.4665 151.784 33.5842 152.061C33.7019 152.337 33.7568 152.632 33.7455 152.928Z" fill="white" stroke="#263238" stroke-linecap="round" stroke-linejoin="round"/>
<path d="M45.1309 158.722L37.9252 170.807L35.026 169.43L42.2256 157.345L45.1309 158.722Z" fill="#263238" stroke="#263238" stroke-linecap="round" stroke-linejoin="round"/>
<path d="M46.3389 158.35L44.3638 161.671L39.9606 159.581L41.9297 156.254C42.2412 155.734 42.7705 155.344 43.4019 155.171C44.0333 154.998 44.7157 155.056 45.3 155.331C45.885 155.609 46.3229 156.082 46.5177 156.648C46.7124 157.214 46.6481 157.826 46.3389 158.35Z" fill="white" stroke="#263238" stroke-linecap="round" stroke-linejoin="round"/>
<path d="M21.2125 158.668L28.3518 170.786L25.4465 172.157L18.3072 160.04L21.2125 158.668Z" fill="#263238" stroke="#263238" stroke-linecap="round" stroke-linejoin="round"/>
<path d="M27.9108 167.454C27.805 166.894 27.5155 166.374 27.0791 165.96C26.6426 165.547 26.0789 165.259 25.4591 165.132C24.8393 165.005 24.1914 165.046 23.5974 165.248C23.0033 165.451 22.4899 165.806 22.1219 166.27C21.754 166.734 21.5481 167.284 21.5304 167.852C21.5127 168.421 21.6839 168.981 22.0224 169.462C22.3608 169.943 22.8514 170.324 23.4319 170.555C24.0124 170.787 24.6567 170.86 25.2834 170.764C26.1225 170.636 26.8704 170.216 27.363 169.595C27.8555 168.974 28.0526 168.204 27.9108 167.454Z" fill="white" stroke="#263238" stroke-linecap="round" stroke-linejoin="round"/>
<path d="M31.0516 167.832C32.8263 167.832 34.2649 166.546 34.2649 164.959C34.2649 163.373 32.8263 162.086 31.0516 162.086C29.277 162.086 27.8384 163.373 27.8384 164.959C27.8384 166.546 29.277 167.832 31.0516 167.832Z" fill="white" stroke="#263238" stroke-linecap="round" stroke-linejoin="round"/>
<path d="M41.5371 166.617C41.6338 166.055 41.5419 165.481 41.2732 164.965C41.0044 164.45 40.5708 164.018 40.0272 163.724C39.4836 163.429 38.8544 163.285 38.2193 163.31C37.5842 163.335 36.9717 163.528 36.4593 163.865C35.9469 164.201 35.5576 164.666 35.3407 165.2C35.1238 165.734 35.0891 166.314 35.2408 166.866C35.3926 167.418 35.724 167.917 36.1933 168.3C36.6625 168.684 37.2484 168.934 37.8768 169.02C38.2937 169.078 38.7192 169.061 39.1289 168.971C39.5386 168.882 39.9246 168.721 40.2646 168.497C40.6046 168.274 40.892 167.993 41.1103 167.671C41.3287 167.348 41.4737 166.99 41.5371 166.617Z" fill="white" stroke="#263238" stroke-linecap="round" stroke-linejoin="round"/>
<path d="M21.5447 157.561L23.5137 160.888L19.1045 162.977L17.1355 159.646C16.9817 159.387 16.8865 159.104 16.8555 158.812C16.8245 158.52 16.8583 158.226 16.9548 157.946C17.0513 157.666 17.2087 157.406 17.418 157.181C17.6273 156.955 17.8843 156.769 18.1744 156.632C18.7594 156.358 19.4423 156.301 20.0739 156.475C20.7054 156.649 21.2342 157.04 21.5447 157.561Z" fill="white" stroke="#263238" stroke-linecap="round" stroke-linejoin="round"/>
<path d="M40.921 173C40.921 175.148 39.9665 177.208 38.2674 178.727C36.5683 180.246 34.2639 181.1 31.861 181.1C31.559 181.1 31.257 181.1 30.9731 181.067C29.325 180.921 27.7533 180.374 26.4287 179.485C25.104 178.597 24.0772 177.4 23.4599 176.026C22.8425 174.652 22.6582 173.153 22.927 171.692C23.1958 170.231 23.9073 168.864 24.9844 167.739C26.0614 166.615 27.4627 165.775 29.0359 165.313C30.6092 164.85 32.2941 164.782 33.9077 165.115C35.5213 165.449 37.0018 166.171 38.1882 167.204C39.3746 168.237 40.2216 169.542 40.6371 170.975C40.8244 171.637 40.9198 172.317 40.921 173Z" fill="white" stroke="#263238" stroke-linecap="round" stroke-linejoin="round"/>
<path d="M40.921 173C40.921 175.148 39.9665 177.208 38.2674 178.727C36.5683 180.246 34.2639 181.1 31.861 181.1C31.559 181.1 31.257 181.1 30.9731 181.067C30.626 179.869 30.5908 178.615 30.8702 177.403C31.1496 176.19 31.7361 175.051 32.5847 174.073C33.4334 173.095 34.5215 172.303 35.7656 171.76C37.0097 171.216 38.3766 170.935 39.7613 170.937C40.0573 170.937 40.3653 170.937 40.6492 170.975C40.8325 171.637 40.9237 172.317 40.921 173Z" fill="white" stroke="#263238" stroke-linecap="round" stroke-linejoin="round"/>
<path d="M86.5416 197.365C88.0799 191.487 83.9976 185.608 77.4235 184.232C70.8494 182.857 64.273 186.507 62.7347 192.384C61.1964 198.262 65.2787 204.141 71.8528 205.517C78.4269 206.892 85.0033 203.242 86.5416 197.365Z" fill="white" stroke="#263238" stroke-linecap="round" stroke-linejoin="round"/>
<path d="M76.9094 199.762C79.9297 198.636 81.3569 195.534 80.0972 192.834C78.8376 190.134 75.368 188.858 72.3477 189.984C69.3275 191.11 67.9002 194.212 69.1599 196.912C70.4196 199.612 73.8892 200.888 76.9094 199.762Z" fill="#263238" stroke="#263238" stroke-linecap="round" stroke-linejoin="round"/>
<path d="M72.5344 241.115H126.774L127.553 237.832C127.865 236.521 127.584 235.152 126.772 234.025C125.959 232.898 124.681 232.104 123.216 231.817C115.527 230.272 98.8808 229.716 98.8808 229.716C94.8703 229.829 83.7084 230.256 76.0194 231.822C74.5646 232.119 73.299 232.916 72.4965 234.041C71.694 235.166 71.419 236.528 71.731 237.832L72.5344 241.115Z" fill="white" stroke="#263238" stroke-linecap="round" stroke-linejoin="round"/>
<path d="M112.706 230.515C105.76 229.943 98.899 229.716 98.899 229.716C96.3742 229.786 91.0107 229.986 85.466 230.515C87.0847 235.456 92.569 239.096 99.0862 239.096C105.603 239.096 111.088 235.44 112.706 230.515Z" fill="#0075BB" stroke="#263238" stroke-linecap="round" stroke-linejoin="round"/>
<path d="M155.737 217.961L159.111 213.919L129.63 194.251L126.257 198.294L155.737 217.961Z" fill="#263238" stroke="#263238" stroke-linecap="round" stroke-linejoin="round"/>
<path d="M141.066 229.894L145.588 232.91L159.087 216.737L154.565 213.721L141.066 229.894Z" fill="#263238" stroke="#263238" stroke-linecap="round" stroke-linejoin="round"/>
<path d="M152.733 212.393C153.14 211.905 153.65 211.494 154.235 211.183C154.819 210.872 155.467 210.667 156.14 210.58C156.813 210.493 157.499 210.525 158.158 210.675C158.817 210.825 159.437 211.089 159.981 211.453L160.374 211.739C161.073 212.309 161.583 213.039 161.85 213.85C162.117 214.661 162.13 215.522 161.887 216.339C161.645 217.156 161.157 217.898 160.476 218.484C159.795 219.071 158.947 219.479 158.025 219.664C157.102 219.85 156.141 219.806 155.244 219.537C154.348 219.268 153.551 218.784 152.941 218.138C152.331 217.493 151.93 216.71 151.783 215.875C151.635 215.04 151.747 214.185 152.105 213.403C152.267 213.044 152.478 212.705 152.733 212.393Z" fill="white" stroke="#263238" stroke-linecap="round" stroke-linejoin="round"/>
<path d="M140.937 225.315C141.703 224.298 142.889 223.595 144.235 223.36C145.581 223.125 146.975 223.378 148.113 224.062C148.252 224.143 148.385 224.235 148.518 224.327C149.247 224.865 149.797 225.572 150.108 226.37C150.42 227.168 150.48 228.027 150.283 228.854C150.086 229.681 149.64 230.444 148.992 231.059C148.344 231.675 147.519 232.12 146.608 232.346C145.697 232.572 144.734 232.57 143.824 232.341C142.914 232.112 142.092 231.664 141.446 231.046C140.801 230.427 140.358 229.663 140.165 228.836C139.972 228.008 140.036 227.149 140.351 226.352C140.498 225.986 140.695 225.638 140.937 225.315Z" fill="white" stroke="#263238" stroke-linecap="round" stroke-linejoin="round"/>
<path d="M125.412 231.1L133.912 231.847L134.233 228.923L125.733 228.177L125.412 231.1Z" fill="#263238" stroke="#263238" stroke-linecap="round" stroke-linejoin="round"/>
<path d="M124.895 227.34L129.087 227.707L128.598 232.146L124.406 231.779C123.748 231.722 123.142 231.433 122.721 230.976C122.301 230.519 122.101 229.932 122.165 229.343C122.231 228.754 122.555 228.213 123.067 227.837C123.579 227.462 124.236 227.283 124.895 227.34Z" fill="white" stroke="#263238" stroke-linecap="round" stroke-linejoin="round"/>
<path d="M133.291 229.23C133.955 228.346 134.807 227.587 135.799 226.997C136.792 226.408 137.904 225.999 139.073 225.794C140.242 225.59 141.445 225.593 142.613 225.805C143.781 226.016 144.89 226.431 145.878 227.027C146.126 227.178 146.361 227.335 146.591 227.502C147.868 228.445 148.831 229.684 149.376 231.083C149.92 232.481 150.026 233.987 149.68 235.435C149.335 236.884 148.552 238.22 147.416 239.298C146.281 240.376 144.836 241.156 143.24 241.551C141.643 241.947 139.956 241.944 138.362 241.542C136.767 241.14 135.327 240.355 134.196 239.273C133.066 238.19 132.289 236.851 131.951 235.401C131.612 233.951 131.725 232.446 132.276 231.05C132.526 230.407 132.867 229.795 133.291 229.23Z" fill="white" stroke="#263238" stroke-linecap="round" stroke-linejoin="round"/>
<path d="M123.53 237.643L134.764 230.132L136.57 232.286L125.336 239.792L123.53 237.643Z" fill="#263238" stroke="#263238" stroke-linecap="round" stroke-linejoin="round"/>
<path d="M122.364 237.53L125.451 235.44L128.193 238.68L125.107 240.748C124.622 241.073 124.013 241.211 123.414 241.134C122.815 241.058 122.274 240.771 121.911 240.338C121.563 239.909 121.416 239.376 121.501 238.852C121.585 238.327 121.895 237.853 122.364 237.53Z" fill="white" stroke="#263238" stroke-linecap="round" stroke-linejoin="round"/>
<path d="M138.038 232.448C138.181 231.894 138.136 231.314 137.91 230.782C137.683 230.25 137.285 229.79 136.766 229.461C136.247 229.132 135.63 228.948 134.994 228.932C134.358 228.917 133.73 229.071 133.192 229.375C132.654 229.678 132.228 230.118 131.97 230.638C131.712 231.158 131.632 231.735 131.741 232.296C131.85 232.856 132.142 233.376 132.582 233.787C133.021 234.199 133.587 234.485 134.209 234.608C135.037 234.773 135.904 234.638 136.621 234.234C137.339 233.829 137.848 233.187 138.038 232.448Z" fill="white" stroke="#263238" stroke-linecap="round" stroke-linejoin="round"/>
<path d="M143.994 245.192L145.661 234.889L148.131 235.202L146.47 245.506L143.994 245.192Z" fill="#263238" stroke="#263238" stroke-linecap="round" stroke-linejoin="round"/>
<path d="M143.239 245.738L143.692 242.903L147.442 243.383L146.989 246.213C146.955 246.434 146.872 246.646 146.745 246.838C146.618 247.03 146.451 247.197 146.251 247.331C146.052 247.465 145.826 247.563 145.584 247.618C145.343 247.674 145.092 247.686 144.845 247.655C144.348 247.591 143.9 247.353 143.598 246.993C143.297 246.634 143.168 246.182 143.239 245.738Z" fill="white" stroke="#263238" stroke-linecap="round" stroke-linejoin="round"/>
<path d="M149.097 234.527C148.813 234.131 148.404 233.819 147.921 233.631C147.439 233.443 146.905 233.387 146.386 233.47C145.868 233.552 145.389 233.771 145.009 234.097C144.63 234.423 144.367 234.843 144.254 235.303C144.141 235.762 144.183 236.242 144.375 236.68C144.566 237.119 144.899 237.497 145.331 237.766C145.762 238.036 146.274 238.185 146.8 238.195C147.326 238.204 147.844 238.075 148.288 237.821C148.883 237.48 149.303 236.942 149.455 236.324C149.607 235.707 149.478 235.06 149.097 234.527Z" fill="white" stroke="#263238" stroke-linecap="round" stroke-linejoin="round"/>
<path d="M132.874 243.821L140.364 233.215L142.906 234.641L135.423 245.252L132.874 243.821Z" fill="#263238" stroke="#263238" stroke-linecap="round" stroke-linejoin="round"/>
<path d="M131.744 244.08L133.792 241.164L137.664 243.324L135.61 246.245C135.287 246.703 134.775 247.027 134.185 247.147C133.595 247.267 132.976 247.174 132.463 246.888C131.952 246.6 131.59 246.143 131.455 245.617C131.321 245.09 131.425 244.538 131.744 244.08Z" fill="white" stroke="#263238" stroke-linecap="round" stroke-linejoin="round"/>
<path d="M144.356 234.328C144.266 233.765 143.992 233.239 143.568 232.817C143.143 232.394 142.588 232.093 141.972 231.953C141.357 231.813 140.708 231.839 140.11 232.029C139.511 232.219 138.988 232.563 138.609 233.019C138.229 233.474 138.01 234.02 137.978 234.588C137.946 235.155 138.103 235.718 138.429 236.205C138.756 236.693 139.237 237.082 139.811 237.325C140.386 237.567 141.028 237.652 141.656 237.568C142.494 237.457 143.249 237.054 143.755 236.446C144.261 235.839 144.477 235.077 144.356 234.328Z" fill="white" stroke="#263238" stroke-linecap="round" stroke-linejoin="round"/>
<path d="M130.481 204.255C136.158 200.987 137.798 194.224 134.143 189.149C130.489 184.073 122.924 182.607 117.247 185.874C111.57 189.141 109.93 195.905 113.585 200.98C117.239 206.056 124.804 207.522 130.481 204.255Z" fill="white" stroke="#263238" stroke-linecap="round" stroke-linejoin="round"/>
<path d="M129.255 197.277C130.619 194.618 129.314 191.473 126.339 190.253C123.365 189.034 119.848 190.2 118.483 192.86C117.119 195.519 118.424 198.664 121.399 199.883C124.373 201.103 127.89 199.936 129.255 197.277Z" fill="#263238" stroke="#263238" stroke-linecap="round" stroke-linejoin="round"/>
<path d="M99.0802 173.405C109.925 173.405 118.716 165.545 118.716 155.849C118.716 146.154 109.925 138.294 99.0802 138.294C88.2355 138.294 79.4441 146.154 79.4441 155.849C79.4441 165.545 88.2355 173.405 99.0802 173.405Z" fill="#0075BB" stroke="#263238" stroke-linecap="round" stroke-linejoin="round"/>
<path d="M127.154 167.54C131.371 162.814 134.01 157.119 134.768 151.111C135.525 145.102 134.371 139.025 131.437 133.577C128.503 128.13 123.909 123.533 118.183 120.316C112.456 117.1 105.831 115.393 99.0681 115.393C92.3053 115.393 85.6798 117.1 79.9536 120.316C74.2275 123.533 69.6332 128.13 66.6992 133.577C63.7652 139.025 62.6107 145.102 63.3683 151.111C64.126 157.119 66.7651 162.814 70.9821 167.54H127.154Z" fill="white" stroke="#263238" stroke-linecap="round" stroke-linejoin="round"/>
<path d="M121.054 135.389H76.2006C73.472 135.389 71.2599 137.367 71.2599 139.806V154.019C71.2599 156.458 73.472 158.436 76.2006 158.436H121.054C123.782 158.436 125.994 156.458 125.994 154.019V139.806C125.994 137.367 123.782 135.389 121.054 135.389Z" fill="#0075BB" stroke="#263238" stroke-linecap="round" stroke-linejoin="round"/>
<path d="M77.1791 145.978C77.7723 144.493 78.8534 143.203 80.2808 142.277C81.7082 141.351 83.4152 140.832 85.1782 140.788C86.9411 140.745 88.6777 141.178 90.1604 142.032C91.6431 142.886 92.8026 144.12 93.4871 145.573" stroke="#263238" stroke-width="5" stroke-linecap="round" stroke-linejoin="round"/>
<path d="M104.232 145.978C104.825 144.493 105.907 143.203 107.334 142.277C108.761 141.351 110.468 140.832 112.231 140.788C113.994 140.745 115.731 141.178 117.214 142.032C118.696 142.886 119.856 144.12 120.54 145.573" stroke="#263238" stroke-width="5" stroke-linecap="round" stroke-linejoin="round"/>
<path d="M94.3448 151.319C94.4964 152.39 95.0798 153.374 95.9855 154.088C96.8912 154.802 98.0571 155.195 99.2644 155.195C100.472 155.195 101.638 154.802 102.543 154.088C103.449 153.374 104.032 152.39 104.184 151.319H94.3448Z" fill="white" stroke="#263238" stroke-linecap="round" stroke-linejoin="round"/>
<path d="M145.564 153.144C144.568 153.144 143.612 152.79 142.907 152.16C142.203 151.53 141.807 150.676 141.807 149.785V142.144C141.806 141.703 141.903 141.265 142.091 140.857C142.28 140.449 142.556 140.078 142.905 139.766C143.254 139.453 143.669 139.205 144.125 139.036C144.581 138.867 145.07 138.78 145.564 138.78C146.058 138.779 146.547 138.866 147.004 139.034C147.46 139.203 147.875 139.45 148.224 139.762C148.574 140.074 148.851 140.444 149.04 140.852C149.23 141.26 149.327 141.697 149.327 142.139V149.78C149.328 150.222 149.231 150.66 149.042 151.068C148.853 151.477 148.576 151.848 148.227 152.16C147.877 152.473 147.462 152.721 147.005 152.889C146.548 153.058 146.058 153.145 145.564 153.144Z" fill="#263238" stroke="#263238" stroke-linecap="round" stroke-linejoin="round"/>
<path d="M51.5695 153.144C51.0756 153.145 50.5865 153.058 50.13 152.89C49.6735 152.721 49.2586 152.474 48.9091 152.162C48.5596 151.85 48.2823 151.48 48.0932 151.072C47.904 150.664 47.8066 150.227 47.8066 149.785V142.144C47.8058 141.702 47.9026 141.264 48.0914 140.856C48.2802 140.447 48.5574 140.076 48.907 139.764C49.2565 139.451 49.6717 139.203 50.1286 139.035C50.5855 138.866 51.0751 138.779 51.5695 138.78C52.0629 138.78 52.5514 138.867 53.0072 139.036C53.463 139.205 53.8772 139.452 54.226 139.764C54.5749 140.076 54.8516 140.446 55.0404 140.853C55.2292 141.261 55.3264 141.698 55.3264 142.139V149.78C55.3272 150.221 55.2306 150.659 55.0422 151.067C54.8537 151.475 54.5771 151.846 54.2282 152.158C53.8792 152.471 53.4648 152.719 53.0086 152.888C52.5524 153.057 52.0634 153.144 51.5695 153.144Z" fill="#263238" stroke="#263238" stroke-linecap="round" stroke-linejoin="round"/>
<path d="M63.6133 118.665C60.2902 123.055 58.5184 128.236 58.5276 133.537V139.088" stroke="#263238" stroke-width="14" stroke-linecap="round" stroke-linejoin="round"/>
<path d="M134.934 118.687C132.214 115.064 128.539 112.096 124.233 110.044C119.927 107.992 115.122 106.919 110.242 106.92H88.2867C83.4137 106.917 78.6147 107.985 74.3121 110.03C70.0096 112.076 66.3354 115.035 63.6133 118.649" stroke="#263238" stroke-width="7" stroke-linecap="round" stroke-linejoin="round"/>
<path d="M139.995 139.088V133.537C140.004 128.246 138.242 123.074 134.934 118.687" stroke="#263238" stroke-width="14" stroke-linecap="round" stroke-linejoin="round"/>
<path d="M61.5234 133.11H56.4861C53.5706 133.11 51.2071 135.223 51.2071 137.83V153.43C51.2071 156.037 53.5706 158.15 56.4861 158.15H61.5234C64.4389 158.15 66.8024 156.037 66.8024 153.43V137.83C66.8024 135.223 64.4389 133.11 61.5234 133.11Z" fill="white" stroke="#263238" stroke-linecap="round" stroke-linejoin="round"/>
<path d="M59.802 133.11H58.2135V158.15H59.802V133.11Z" fill="#0075BB" stroke="#263238" stroke-linecap="round" stroke-linejoin="round"/>
<path d="M141.082 133.11H136.045C133.129 133.11 130.766 135.223 130.766 137.83V153.43C130.766 156.037 133.129 158.15 136.045 158.15H141.082C143.998 158.15 146.361 156.037 146.361 153.43V137.83C146.361 135.223 143.998 133.11 141.082 133.11Z" fill="white" stroke="#263238" stroke-linecap="round" stroke-linejoin="round"/>
<path d="M139.361 133.11H137.772V158.15H139.361V133.11Z" fill="#0075BB" stroke="#263238" stroke-linecap="round" stroke-linejoin="round"/>
<path d="M99.207 130.837C101.958 130.837 104.666 130.222 107.083 129.046C109.5 127.871 111.55 126.173 113.045 124.108L116.451 119.394C111.053 116.729 104.978 115.351 98.812 115.394C92.6457 115.436 86.5954 116.898 81.244 119.637L86.372 125.329C87.9146 127.046 89.8685 128.433 92.0898 129.386C94.311 130.339 96.7431 130.835 99.207 130.837Z" fill="#0075BB" stroke="#263238" stroke-linecap="round" stroke-linejoin="round"/>
<path d="M100.059 160.769C100.059 160.662 100.023 160.558 99.9568 160.469C99.8905 160.38 99.7961 160.311 99.6858 160.27C99.5754 160.229 99.454 160.218 99.3368 160.239C99.2196 160.26 99.112 160.312 99.0275 160.387C98.9431 160.463 98.8856 160.559 98.8622 160.664C98.8389 160.768 98.8509 160.877 98.8966 160.976C98.9423 161.074 99.0197 161.159 99.1191 161.218C99.2184 161.277 99.3352 161.309 99.4546 161.309C99.6148 161.309 99.7685 161.252 99.8817 161.151C99.995 161.049 100.059 160.912 100.059 160.769Z" fill="#263238"/>
<path d="M100.059 162.583C100.059 162.476 100.023 162.372 99.9568 162.283C99.8905 162.194 99.7961 162.125 99.6858 162.084C99.5754 162.043 99.454 162.033 99.3368 162.054C99.2196 162.074 99.112 162.126 99.0275 162.201C98.9431 162.277 98.8856 162.373 98.8622 162.478C98.8389 162.583 98.8509 162.691 98.8966 162.79C98.9423 162.889 99.0197 162.973 99.1191 163.032C99.2184 163.092 99.3352 163.123 99.4546 163.123C99.6148 163.123 99.7685 163.066 99.8817 162.965C99.995 162.864 100.059 162.726 100.059 162.583Z" fill="#263238"/>
<path d="M97.7574 162.302C97.8677 162.239 97.9518 162.145 97.997 162.034C98.0421 161.924 98.0459 161.804 98.0077 161.691C97.9694 161.579 97.8913 161.481 97.7851 161.412C97.6789 161.343 97.5504 161.307 97.4192 161.309C97.3088 161.372 97.2247 161.467 97.1796 161.577C97.1344 161.687 97.1307 161.807 97.1689 161.92C97.2071 162.032 97.2853 162.13 97.3915 162.199C97.4976 162.268 97.6261 162.304 97.7574 162.302Z" fill="#263238"/>
<path d="M101.387 162.302C101.481 162.301 101.573 162.28 101.656 162.242C101.738 162.203 101.81 162.148 101.865 162.08C101.92 162.013 101.957 161.935 101.972 161.852C101.988 161.77 101.982 161.685 101.955 161.605C101.927 161.525 101.88 161.452 101.816 161.391C101.751 161.331 101.672 161.284 101.584 161.255C101.497 161.227 101.403 161.217 101.31 161.226C101.217 161.235 101.128 161.264 101.049 161.309C100.956 161.31 100.864 161.331 100.781 161.37C100.698 161.408 100.626 161.464 100.571 161.531C100.516 161.599 100.48 161.677 100.464 161.759C100.449 161.842 100.455 161.926 100.482 162.006C100.509 162.086 100.557 162.159 100.621 162.22C100.685 162.281 100.764 162.327 100.852 162.356C100.94 162.385 101.034 162.395 101.127 162.385C101.22 162.376 101.309 162.348 101.387 162.302Z" fill="#263238"/>
<path d="M123.216 181.03C115.527 179.48 98.8808 178.924 98.8808 178.924C94.8703 179.037 83.7084 179.464 76.0194 181.035C74.5638 181.331 73.2972 182.128 72.4944 183.253C71.6916 184.378 71.4173 185.741 71.731 187.045L78.8522 216.832C79.2021 218.276 80.0936 219.57 81.3789 220.499C82.6642 221.428 84.2661 221.937 85.919 221.94H113.371C115.024 221.937 116.626 221.428 117.911 220.499C119.196 219.57 120.088 218.276 120.438 216.832L127.553 187.045C127.865 185.734 127.584 184.365 126.772 183.238C125.959 182.111 124.681 181.317 123.216 181.03Z" fill="white" stroke="#263238" stroke-linecap="round" stroke-linejoin="round"/>
<path d="M119.713 180.457C111.372 179.345 98.899 178.924 98.899 178.924C92.792 179.08 86.6988 179.531 80.6461 180.274L88.7155 221.94H110.647L119.713 180.457Z" fill="#0075BB" stroke="#263238" stroke-linecap="round" stroke-linejoin="round"/>
<path d="M106.099 187.979H92.7382C90.0095 187.979 87.7974 189.957 87.7974 192.397V198.229C87.7974 200.668 90.0095 202.646 92.7382 202.646H106.099C108.827 202.646 111.039 200.668 111.039 198.229V192.397C111.039 189.957 108.827 187.979 106.099 187.979Z" fill="white" stroke="#263238" stroke-linecap="round" stroke-linejoin="round"/>
<path d="M95.5166 194.022H91.7536V197.386H95.5166V194.022Z" fill="white" stroke="#263238" stroke-linecap="round" stroke-linejoin="round"/>
<path d="M101.297 194.022H97.5339V197.386H101.297V194.022Z" fill="white" stroke="#263238" stroke-linecap="round" stroke-linejoin="round"/>
<path d="M107.083 194.022H103.32V197.386H107.083V194.022Z" fill="white" stroke="#263238" stroke-linecap="round" stroke-linejoin="round"/>
<path d="M46.5442 212.522H113.492C114.293 212.522 115.061 212.807 115.627 213.313C116.193 213.82 116.512 214.506 116.512 215.222V248.848H43.5242V215.222C43.5242 214.506 43.8424 213.82 44.4088 213.313C44.9751 212.807 45.7433 212.522 46.5442 212.522Z" fill="white" stroke="#263238" stroke-linecap="round" stroke-linejoin="round"/>
<path d="M116.512 224.608C107.343 226.687 97.9326 231.979 80.3984 239.431C63.4864 246.623 49.6428 246.499 43.5242 245.943V248.848H116.512V224.608Z" fill="#263238" stroke="#263238" stroke-linecap="round" stroke-linejoin="round"/>
<path d="M116.512 246.834H43.5242V248.854H116.512V246.834Z" fill="white" stroke="#263238" stroke-linecap="round" stroke-linejoin="round"/>
<path d="M83.7808 230.688C83.7808 231.353 83.5601 232.004 83.1467 232.557C82.7332 233.11 82.1455 233.542 81.4579 233.796C80.7703 234.051 80.0137 234.117 79.2838 233.988C78.5539 233.858 77.8834 233.537 77.3571 233.067C76.8309 232.596 76.4725 231.997 76.3273 231.344C76.1821 230.692 76.2566 230.015 76.5414 229.401C76.8262 228.786 77.3085 228.26 77.9274 227.891C78.5462 227.521 79.2737 227.324 80.0179 227.324C81.0159 227.324 81.973 227.678 82.6787 228.309C83.3844 228.94 83.7808 229.796 83.7808 230.688Z" fill="white" stroke="#263238" stroke-linecap="round" stroke-linejoin="round"/>
</svg>
