<?xml version="1.0" encoding="UTF-8"?><svg id="a" xmlns="http://www.w3.org/2000/svg" viewBox="0 0 195.9 195.9"><defs><style>.b{fill:#023048;}.c{fill:#0b9ddd;}</style></defs><g><path class="c" d="M169.32,71.68c-.13-.38-.54-.57-.92-.44-7.83,2.6-16.04,4.06-24.21,5.03-20.85,2.44-42.04,.73-62.49-3.76-4.42-.96-9.03-2.03-13.39-3.25-4.81-1.34-9.7-2.99-14.32-4.83-1.27-.5-2.54-1.03-3.8-1.57h.02V29.02h94.98v42.88c4.53-.06,9.05-.98,13.52-1.64,.09-.02,.19-.01,.28,0V20.52c0-2.93-2.37-5.3-5.3-5.3H41.46c-2.78,0-5.04,2.26-5.04,5.04V56.19c-3.4-1.89-6.68-3.93-9.6-6.44-3.95-3.34-7.32-8.01-6.81-13.42,.87-7.23,6.87-13.36,12.28-18.2,.59-.47,.17-1.45-.6-1.31-2.2,.45-4.25,1.17-6.3,2.07-12.65,5.5-20.12,17.33-14.79,30.99,5.2,12.81,18.77,20.87,31.33,25.08,9.76,3.25,19.94,5.13,30.05,6.9,7.27,1.21,14.86,2.17,22.21,2.71,21.19,1.37,42.78-.66,63.01-7.27,4.02-1.36,7.98-2.83,11.77-4.74,.32-.16,.47-.54,.35-.88Z"/><path class="b" d="M181.22,42.94c-4.74-5.04-10.81-8.81-17.35-10.94-.78-.24-1.3,.81-.65,1.29,3.24,2.67,6.28,5.68,8.87,8.98,5.5,6.96,8.58,15.14,4.93,23.67-.89,2.07-2.06,4.19-3.48,5.92-2.14,2.64-4.64,4.45-7.65,6.05-4.69,2.47-10.63,4.38-16,5.89-12.07,3.48-24.72,4.75-37.27,5.36-19.06,.93-38.31-.7-56.79-5.6-8.24-2.21-16.45-4.94-24.09-8.77-.32-.18-.73-.09-.94,.21-.23,.32-.16,.77,.17,1,1.81,1.29,3.67,2.41,5.59,3.51,17.28,9.76,36.66,15.49,56.26,18.28,13.18,1.85,26.48,2.06,39.79,1.64,5.33-.18,10.88-.42,16.37-1.08l4.08,15.24H43.08l6.26-23.38c-1.05-.47-2.1-.94-3.14-1.43-3.17-1.54-6.29-3.15-9.28-5.02l-10.65,39.76c-.51,1.89,.92,3.74,2.87,3.74H167.02c1.95,0,3.37-1.85,2.87-3.74l-7.49-27.94c6.38-2.02,12.31-5.16,17.22-10.13,2.86-2.89,4.98-6.38,6.56-10.06,.85-1.9,1.56-3.94,2.06-5.96,2.45-9.71-.2-19.26-7.02-26.49Z"/></g><g><path class="b" d="M19.8,182.26c-4.78,0-8.59-1.35-11.42-4.06-2.84-2.71-4.26-6.6-4.26-11.68v-9.3c0-5.08,1.42-8.97,4.26-11.68,2.84-2.71,6.65-4.06,11.42-4.06s8.46,1.31,11.06,3.92c2.59,2.61,3.89,6.2,3.89,10.75v.34h-6.61v-.5c0-2.46-.68-4.49-2.04-6.08-1.36-1.59-3.46-2.38-6.3-2.38s-4.94,.85-6.52,2.55c-1.59,1.7-2.38,4.04-2.38,7.03v9.52c0,2.95,.79,5.28,2.38,7,1.59,1.72,3.76,2.58,6.52,2.58s4.94-.79,6.3-2.38c1.36-1.59,2.04-3.61,2.04-6.08v-.95h6.61v.78c0,4.56-1.3,8.14-3.89,10.75-2.6,2.61-6.28,3.92-11.06,3.92Z"/><path class="b" d="M37.88,181.48l10.75-39.2h11.7l10.75,39.2h-6.94l-2.35-8.96h-14.62l-2.35,8.96h-6.94Zm10.86-15.12h11.48l-5.26-19.88h-.95l-5.26,19.88Z"/><path class="b" d="M76.08,181.48v-39.2h12.6l7.62,34.66h.95l7.67-34.66h12.54v39.2h-6.5v-34.33h-.95l-7.62,34.33h-11.2l-7.62-34.33h-.95v34.33h-6.55Z"/><path class="b" d="M125.24,181.48v-39.2h16.74c2.46,0,4.61,.43,6.44,1.29,1.83,.86,3.26,2.06,4.28,3.61,1.03,1.55,1.54,3.41,1.54,5.57v.62c0,2.43-.58,4.37-1.74,5.82-1.16,1.46-2.56,2.52-4.2,3.19v.9c1.46,.08,2.6,.58,3.44,1.51,.84,.93,1.26,2.18,1.26,3.75v12.94h-6.72v-11.98c0-.93-.25-1.69-.76-2.27-.5-.58-1.32-.87-2.44-.87h-11.09v15.12h-6.78Zm6.78-21.22h9.3c1.94,0,3.46-.51,4.56-1.54,1.1-1.03,1.65-2.4,1.65-4.12v-.5c0-1.75-.54-3.15-1.62-4.17-1.08-1.03-2.61-1.54-4.59-1.54h-9.3v11.87Z"/><path class="b" d="M175.53,182.26c-3.14,0-5.83-.57-8.09-1.71s-4-2.79-5.21-4.96c-1.21-2.17-1.82-4.74-1.82-7.73v-25.59h6.72v25.76c0,2.61,.73,4.63,2.18,6.05s3.53,2.13,6.22,2.13,4.81-.71,6.24-2.13,2.16-3.43,2.16-6.05v-25.76h6.72v25.59c0,2.99-.6,5.56-1.79,7.73-1.2,2.17-2.93,3.82-5.21,4.96s-4.98,1.71-8.12,1.71Z"/></g></svg>