<?xml version="1.0" encoding="UTF-8"?><svg id="a" xmlns="http://www.w3.org/2000/svg" viewBox="0 0 1200 223.72"><defs><style>.b{fill:#023048;}.c{fill:#0b9ddd;}</style></defs><g><path class="c" d="M222.71,105.1c-.14-.4-.58-.61-.97-.47-8.29,2.75-16.99,4.3-25.65,5.33-22.1,2.59-44.55,.78-66.22-3.98-4.68-1.02-9.57-2.15-14.19-3.44-5.09-1.42-10.28-3.17-15.18-5.12-1.34-.53-2.69-1.09-4.03-1.66h.02V59.89h100.65v45.44c4.8-.07,9.59-1.04,14.33-1.73,.1-.02,.2-.01,.29,0V50.89c0-3.1-2.51-5.61-5.61-5.61H87.21c-2.95,0-5.34,2.39-5.34,5.34v38.07c-3.6-2-7.07-4.17-10.18-6.82-4.18-3.53-7.76-8.49-7.21-14.22,.92-7.66,7.28-14.16,13.01-19.29,.63-.5,.18-1.54-.64-1.39-2.33,.48-4.51,1.24-6.68,2.19-13.4,5.83-21.32,18.36-15.67,32.84,5.51,13.57,19.89,22.12,33.2,26.58,10.34,3.45,21.13,5.44,31.85,7.31,7.71,1.28,15.74,2.3,23.54,2.87,22.46,1.45,45.33-.7,66.77-7.71,4.26-1.44,8.45-3,12.48-5.02,.33-.17,.5-.57,.37-.93Z"/><path class="b" d="M235.32,74.64c-5.02-5.34-11.45-9.34-18.38-11.6-.82-.25-1.38,.86-.69,1.36,3.44,2.83,6.66,6.02,9.4,9.52,5.82,7.37,9.1,16.04,5.23,25.08-.95,2.2-2.18,4.44-3.69,6.27-2.26,2.79-4.92,4.72-8.11,6.41-4.97,2.62-11.26,4.65-16.95,6.24-12.79,3.68-26.19,5.03-39.49,5.68-20.2,.99-40.6-.75-60.18-5.93-8.73-2.34-17.43-5.23-25.53-9.3-.34-.19-.77-.1-1,.22-.24,.34-.16,.82,.18,1.06,1.92,1.36,3.89,2.55,5.92,3.72,18.32,10.35,38.85,16.41,59.62,19.37,13.97,1.96,28.07,2.18,42.16,1.74,5.64-.19,11.53-.44,17.35-1.15l4.33,16.15H88.92l6.64-24.77c-1.12-.49-2.23-1-3.33-1.52-3.36-1.63-6.67-3.34-9.84-5.32l-11.29,42.14c-.54,2,.97,3.96,3.04,3.96H220.27c2.07,0,3.57-1.96,3.04-3.96l-7.93-29.61c6.77-2.14,13.04-5.47,18.24-10.73,3.03-3.06,5.28-6.76,6.95-10.66,.9-2.01,1.65-4.17,2.19-6.31,2.6-10.29-.21-20.41-7.44-28.07Z"/></g><g><path class="b" d="M305.6,92.75V52.67h-14.17v-7.39h36.49v7.39h-14.17v40.08h-8.14Z"/><path class="b" d="M334.56,92.75V45.28h7.8v18.38h1.15c.36-.77,.95-1.54,1.76-2.31,.81-.77,1.89-1.4,3.22-1.9,1.33-.5,3.02-.75,5.05-.75,2.58,0,4.86,.58,6.85,1.73,1.99,1.15,3.54,2.77,4.65,4.85,1.11,2.08,1.66,4.54,1.66,7.39v20.08h-7.8v-19.46c0-2.71-.67-4.74-2-6.07-1.33-1.33-3.22-2-5.66-2-2.76,0-4.93,.92-6.51,2.75-1.58,1.83-2.37,4.44-2.37,7.83v16.96h-7.8Z"/><path class="b" d="M391.6,93.7c-3.35,0-6.3-.71-8.85-2.14-2.55-1.42-4.54-3.44-5.97-6.04-1.42-2.6-2.14-5.64-2.14-9.12v-.81c0-3.53,.7-6.58,2.1-9.16,1.4-2.58,3.37-4.58,5.9-6,2.53-1.42,5.45-2.14,8.75-2.14s6.1,.71,8.55,2.14c2.44,1.42,4.34,3.43,5.7,6s2.03,5.58,2.03,9.02v2.78h-25.16c.09,2.62,1.02,4.73,2.78,6.31,1.76,1.58,3.93,2.37,6.51,2.37s4.41-.55,5.63-1.66c1.22-1.11,2.15-2.36,2.78-3.76l6.44,3.32c-.63,1.22-1.55,2.52-2.75,3.9-1.2,1.38-2.79,2.55-4.78,3.53-1.99,.97-4.5,1.46-7.53,1.46Zm-9.02-21.36h17.16c-.18-2.21-1.03-3.98-2.54-5.29-1.52-1.31-3.47-1.97-5.87-1.97s-4.48,.66-5.97,1.97c-1.49,1.31-2.42,3.08-2.78,5.29Z"/><path class="b" d="M450.53,93.7c-5.79,0-10.4-1.64-13.84-4.92-3.44-3.28-5.15-7.99-5.15-14.14v-11.26c0-6.15,1.72-10.86,5.15-14.14,3.44-3.28,8.05-4.92,13.84-4.92s10.25,1.58,13.39,4.75c3.14,3.17,4.71,7.51,4.71,13.02v.41h-8v-.61c0-2.98-.83-5.44-2.48-7.36-1.65-1.92-4.19-2.88-7.63-2.88s-5.98,1.03-7.9,3.09c-1.92,2.06-2.88,4.9-2.88,8.51v11.53c0,3.57,.96,6.4,2.88,8.48,1.92,2.08,4.55,3.12,7.9,3.12s5.98-.96,7.63-2.88c1.65-1.92,2.48-4.37,2.48-7.36v-1.15h8v.95c0,5.52-1.57,9.86-4.71,13.02-3.14,3.17-7.61,4.75-13.39,4.75Z"/><path class="b" d="M492.44,93.7c-3.35,0-6.34-.69-8.99-2.07-2.65-1.38-4.73-3.35-6.24-5.9-1.52-2.55-2.27-5.62-2.27-9.19v-1.09c0-3.57,.76-6.65,2.27-9.22,1.51-2.58,3.59-4.54,6.24-5.9s5.64-2.03,8.99-2.03,6.33,.68,8.95,2.03c2.62,1.36,4.69,3.32,6.21,5.9,1.51,2.58,2.27,5.65,2.27,9.22v1.09c0,3.57-.76,6.64-2.27,9.19-1.52,2.56-3.58,4.52-6.21,5.9-2.62,1.38-5.61,2.07-8.95,2.07Zm0-6.92c2.85,0,5.18-.92,6.99-2.75,1.81-1.83,2.71-4.4,2.71-7.7v-.68c0-3.3-.91-5.87-2.71-7.7-1.81-1.83-4.14-2.75-6.99-2.75s-5.18,.92-6.99,2.75c-1.81,1.83-2.71,4.4-2.71,7.7v.68c0,3.3,.9,5.87,2.71,7.7,1.81,1.83,4.14,2.75,6.99,2.75Z"/><path class="b" d="M518.15,92.75V59.25h7.66v3.73h1.15c.59-1.13,1.57-2.14,2.95-3.02,1.38-.88,3.22-1.32,5.53-1.32,2.44,0,4.41,.5,5.9,1.49,1.49,1,2.62,2.26,3.39,3.8h1.09c.77-1.54,1.88-2.8,3.32-3.8,1.45-.99,3.5-1.49,6.17-1.49,2.08,0,3.97,.45,5.66,1.36,1.7,.9,3.05,2.24,4.07,4,1.02,1.76,1.53,3.96,1.53,6.58v22.18h-7.8v-21.63c0-1.94-.52-3.43-1.56-4.44-1.04-1.02-2.49-1.53-4.34-1.53-2.03,0-3.65,.67-4.85,2-1.2,1.33-1.8,3.25-1.8,5.73v19.87h-7.73v-21.63c0-1.94-.52-3.43-1.56-4.44-1.04-1.02-2.49-1.53-4.34-1.53-2.08,0-3.71,.67-4.88,2-1.18,1.33-1.76,3.25-1.76,5.73v19.87h-7.8Z"/><path class="b" d="M576.14,106.31V59.25h7.66v4.41h1.15c.77-1.4,2-2.65,3.7-3.73,1.7-1.09,4.13-1.63,7.29-1.63,2.71,0,5.23,.67,7.56,2,2.33,1.33,4.19,3.29,5.6,5.87,1.4,2.58,2.1,5.67,2.1,9.29v1.09c0,3.62-.7,6.71-2.1,9.29-1.4,2.58-3.26,4.53-5.56,5.87s-4.84,2-7.6,2c-2.13,0-3.9-.25-5.32-.75s-2.58-1.15-3.46-1.97c-.88-.81-1.57-1.63-2.07-2.44h-1.15v17.77h-7.8Zm17.5-19.4c2.85,0,5.19-.92,7.02-2.75s2.75-4.44,2.75-7.83v-.68c0-3.44-.93-6.06-2.78-7.87-1.85-1.81-4.18-2.71-6.99-2.71s-5.14,.9-7.02,2.71c-1.88,1.81-2.81,4.43-2.81,7.87v.68c0,3.39,.94,6,2.81,7.83,1.88,1.83,4.22,2.75,7.02,2.75Z"/><path class="b" d="M632.29,93.29c-2.58,0-4.86-.58-6.85-1.73-1.99-1.15-3.53-2.78-4.61-4.88s-1.63-4.55-1.63-7.36v-20.07h7.73v19.46c0,2.71,.67,4.73,2,6.04,1.33,1.31,3.22,1.97,5.66,1.97,2.76,0,4.94-.9,6.54-2.71,1.6-1.81,2.41-4.41,2.41-7.8v-16.96h7.73v33.5h-7.6v-4.68h-1.15c-.59,1.22-1.66,2.4-3.22,3.53-1.56,1.13-3.9,1.7-7.02,1.7Z"/><path class="b" d="M673.93,92.75c-2.17,0-3.9-.64-5.19-1.93-1.29-1.29-1.93-3.04-1.93-5.26v-19.87h-8.75v-6.44h8.75v-10.78h7.8v10.78h9.63v6.44h-9.63v18.58c0,1.36,.63,2.03,1.9,2.03h6.71v6.44h-9.29Z"/><path class="b" d="M696.04,54.97c-1.4,0-2.61-.46-3.63-1.39-1.02-.93-1.53-2.16-1.53-3.7s.51-2.77,1.53-3.7c1.02-.93,2.23-1.39,3.63-1.39,1.49,0,2.72,.46,3.7,1.39,.97,.93,1.46,2.16,1.46,3.7s-.49,2.77-1.46,3.7c-.97,.93-2.2,1.39-3.7,1.39Zm-3.87,37.78V59.25h7.8v33.5h-7.8Z"/><path class="b" d="M709.88,92.75V59.25h7.66v4.68h1.15c.59-1.27,1.65-2.46,3.19-3.59,1.54-1.13,3.87-1.7,6.99-1.7,2.58,0,4.86,.59,6.85,1.76,1.99,1.18,3.54,2.8,4.65,4.88,1.11,2.08,1.66,4.54,1.66,7.39v20.08h-7.8v-19.46c0-2.71-.67-4.74-2-6.07-1.33-1.33-3.22-2-5.66-2-2.76,0-4.93,.92-6.51,2.75-1.58,1.83-2.37,4.44-2.37,7.83v16.96h-7.8Z"/><path class="b" d="M749.96,76.13v-1.02c0-3.53,.7-6.54,2.1-9.05,1.4-2.51,3.28-4.43,5.63-5.76,2.35-1.33,4.93-2,7.73-2,3.16,0,5.57,.57,7.22,1.7,1.65,1.13,2.86,2.35,3.63,3.66h1.15v-4.41h7.6v39.88c0,2.21-.63,3.97-1.9,5.26s-2.98,1.93-5.15,1.93h-22.52v-6.78h19.87c1.31,0,1.97-.68,1.97-2.03v-9.7h-1.15c-.5,.77-1.18,1.55-2.03,2.34-.86,.79-1.99,1.46-3.39,2s-3.17,.81-5.29,.81c-2.8,0-5.38-.67-7.73-2-2.35-1.33-4.23-3.26-5.63-5.76-1.4-2.51-2.1-5.53-2.1-9.05Zm17.63,9.97c2.8,0,5.13-.89,6.99-2.68,1.85-1.79,2.78-4.28,2.78-7.49v-.68c0-3.26-.92-5.77-2.75-7.53-1.83-1.76-4.17-2.65-7.02-2.65s-5.14,.88-7.02,2.65c-1.88,1.76-2.81,4.27-2.81,7.53v.68c0,3.21,.94,5.71,2.81,7.49,1.88,1.79,4.21,2.68,7.02,2.68Z"/><path class="b" d="M807.81,92.75l13.02-47.47h14.17l13.02,47.47h-8.41l-2.85-10.85h-17.7l-2.85,10.85h-8.41Zm13.16-18.31h13.9l-6.38-24.08h-1.15l-6.38,24.08Z"/><path class="b" d="M854.33,92.75V45.28h7.8v47.47h-7.8Z"/><path class="b" d="M872.03,92.75V45.28h7.8v47.47h-7.8Z"/><path class="b" d="M893.6,54.97c-1.4,0-2.61-.46-3.63-1.39-1.02-.93-1.53-2.16-1.53-3.7s.51-2.77,1.53-3.7c1.02-.93,2.23-1.39,3.63-1.39,1.49,0,2.72,.46,3.7,1.39,.97,.93,1.46,2.16,1.46,3.7s-.49,2.77-1.46,3.7c-.97,.93-2.2,1.39-3.7,1.39Zm-3.87,37.78V59.25h7.8v33.5h-7.8Z"/><path class="b" d="M917.81,93.7c-2.35,0-4.48-.42-6.38-1.25-1.9-.84-3.4-2.05-4.51-3.63-1.11-1.58-1.66-3.53-1.66-5.83s.55-4.16,1.66-5.7c1.11-1.54,2.63-2.7,4.58-3.49,1.94-.79,4.16-1.19,6.65-1.19h9.7v-2.03c0-1.76-.54-3.2-1.63-4.31-1.08-1.11-2.78-1.66-5.09-1.66s-3.97,.53-5.12,1.59c-1.15,1.06-1.91,2.43-2.27,4.1l-7.19-2.37c.54-1.76,1.41-3.37,2.61-4.82,1.2-1.45,2.79-2.61,4.78-3.49,1.99-.88,4.43-1.32,7.32-1.32,4.39,0,7.83,1.1,10.34,3.29,2.51,2.19,3.76,5.37,3.76,9.53v13.16c0,1.36,.63,2.03,1.9,2.03h2.85v6.44h-5.49c-1.63,0-2.96-.41-4-1.22s-1.56-1.92-1.56-3.32v-.14h-1.15c-.27,.63-.75,1.4-1.42,2.31-.68,.9-1.71,1.68-3.09,2.34-1.38,.65-3.25,.98-5.6,.98Zm1.29-6.38c2.58,0,4.68-.73,6.31-2.2,1.63-1.47,2.44-3.45,2.44-5.93v-.68h-9.22c-1.67,0-3.03,.36-4.07,1.08-1.04,.72-1.56,1.79-1.56,3.19s.54,2.45,1.63,3.29c1.08,.84,2.58,1.25,4.48,1.25Z"/><path class="b" d="M946.57,92.75V59.25h7.66v4.68h1.15c.59-1.27,1.65-2.46,3.19-3.59,1.54-1.13,3.87-1.7,6.99-1.7,2.58,0,4.86,.59,6.85,1.76,1.99,1.18,3.54,2.8,4.65,4.88,1.11,2.08,1.66,4.54,1.66,7.39v20.08h-7.8v-19.46c0-2.71-.67-4.74-2-6.07-1.33-1.33-3.22-2-5.66-2-2.76,0-4.93,.92-6.51,2.75-1.58,1.83-2.37,4.44-2.37,7.83v16.96h-7.8Z"/><path class="b" d="M1003.94,93.7c-3.25,0-6.19-.68-8.82-2.03-2.62-1.36-4.69-3.32-6.21-5.9-1.52-2.58-2.27-5.67-2.27-9.29v-.95c0-3.62,.76-6.71,2.27-9.29,1.51-2.58,3.58-4.54,6.21-5.9,2.62-1.36,5.56-2.03,8.82-2.03s5.96,.57,8.24,1.7c2.28,1.13,4.13,2.68,5.53,4.65s2.31,4.17,2.71,6.61l-7.53,1.56c-.18-1.4-.61-2.68-1.29-3.83-.68-1.15-1.64-2.07-2.88-2.75s-2.77-1.02-4.58-1.02-3.52,.4-4.99,1.19c-1.47,.79-2.62,1.98-3.46,3.56-.84,1.58-1.25,3.48-1.25,5.7v.68c0,2.22,.42,4.1,1.25,5.66,.84,1.56,1.99,2.75,3.46,3.56,1.47,.81,3.13,1.22,4.99,1.22,2.76,0,4.85-.71,6.27-2.14,1.42-1.42,2.32-3.27,2.68-5.53l7.53,1.76c-.54,2.35-1.52,4.5-2.92,6.44-1.4,1.94-3.24,3.49-5.53,4.65-2.28,1.15-5.03,1.73-8.24,1.73Z"/><path class="b" d="M1043.55,93.7c-3.35,0-6.3-.71-8.85-2.14-2.55-1.42-4.54-3.44-5.97-6.04-1.42-2.6-2.14-5.64-2.14-9.12v-.81c0-3.53,.7-6.58,2.1-9.16,1.4-2.58,3.37-4.58,5.9-6,2.53-1.42,5.45-2.14,8.75-2.14s6.1,.71,8.54,2.14c2.44,1.42,4.34,3.43,5.7,6s2.03,5.58,2.03,9.02v2.78h-25.16c.09,2.62,1.02,4.73,2.78,6.31,1.76,1.58,3.93,2.37,6.51,2.37s4.41-.55,5.63-1.66c1.22-1.11,2.15-2.36,2.78-3.76l6.44,3.32c-.63,1.22-1.55,2.52-2.75,3.9-1.2,1.38-2.79,2.55-4.78,3.53-1.99,.97-4.5,1.46-7.53,1.46Zm-9.02-21.36h17.16c-.18-2.21-1.03-3.98-2.54-5.29-1.52-1.31-3.47-1.97-5.87-1.97s-4.48,.66-5.97,1.97c-1.49,1.31-2.42,3.08-2.78,5.29Z"/><path class="b" d="M310.55,164.7c-3.35,0-6.34-.69-8.99-2.07s-4.73-3.35-6.24-5.9c-1.52-2.55-2.27-5.62-2.27-9.19v-1.08c0-3.57,.76-6.65,2.27-9.22,1.51-2.58,3.59-4.54,6.24-5.9s5.64-2.04,8.99-2.04,6.33,.68,8.95,2.04c2.62,1.36,4.69,3.32,6.21,5.9,1.51,2.58,2.27,5.65,2.27,9.22v1.08c0,3.57-.76,6.64-2.27,9.19-1.52,2.55-3.58,4.52-6.21,5.9-2.62,1.38-5.61,2.07-8.95,2.07Zm0-6.92c2.85,0,5.18-.92,6.99-2.75,1.81-1.83,2.71-4.4,2.71-7.7v-.68c0-3.3-.91-5.87-2.71-7.7-1.81-1.83-4.14-2.75-6.99-2.75s-5.18,.92-6.99,2.75c-1.81,1.83-2.71,4.4-2.71,7.7v.68c0,3.3,.9,5.87,2.71,7.7,1.81,1.83,4.14,2.75,6.99,2.75Z"/><path class="b" d="M340.94,163.75v-27.06h-8.95v-6.44h8.95v-6.78c0-2.21,.64-3.97,1.93-5.26,1.29-1.29,2.99-1.93,5.12-1.93h8.68v6.44h-6.1c-1.27,0-1.9,.68-1.9,2.03v5.49h9.22v6.44h-9.22v27.06h-7.73Z"/><path class="b" d="M381.76,163.75v-47.47h15.26l9.22,41.98h1.15l9.29-41.98h15.19v47.47h-7.87v-41.57h-1.15l-9.22,41.57h-13.56l-9.22-41.57h-1.15v41.57h-7.94Z"/><path class="b" d="M457.45,164.7c-3.35,0-6.34-.69-8.99-2.07s-4.73-3.35-6.24-5.9c-1.52-2.55-2.27-5.62-2.27-9.19v-1.08c0-3.57,.76-6.65,2.27-9.22,1.51-2.58,3.59-4.54,6.24-5.9s5.64-2.04,8.99-2.04,6.33,.68,8.95,2.04c2.62,1.36,4.69,3.32,6.21,5.9,1.51,2.58,2.27,5.65,2.27,9.22v1.08c0,3.57-.76,6.64-2.27,9.19-1.52,2.55-3.58,4.52-6.21,5.9-2.62,1.38-5.61,2.07-8.95,2.07Zm0-6.92c2.85,0,5.18-.92,6.99-2.75,1.81-1.83,2.71-4.4,2.71-7.7v-.68c0-3.3-.91-5.87-2.71-7.7-1.81-1.83-4.14-2.75-6.99-2.75s-5.18,.92-6.99,2.75c-1.81,1.83-2.71,4.4-2.71,7.7v.68c0,3.3,.9,5.87,2.71,7.7,1.81,1.83,4.14,2.75,6.99,2.75Z"/><path class="b" d="M495.97,164.29c-2.58,0-4.86-.58-6.85-1.73-1.99-1.15-3.53-2.78-4.61-4.88-1.08-2.1-1.63-4.55-1.63-7.36v-20.08h7.73v19.46c0,2.71,.67,4.73,2,6.04,1.33,1.31,3.22,1.97,5.66,1.97,2.76,0,4.94-.9,6.54-2.71,1.6-1.81,2.41-4.41,2.41-7.8v-16.96h7.73v33.5h-7.6v-4.68h-1.15c-.59,1.22-1.66,2.4-3.22,3.53-1.56,1.13-3.9,1.7-7.02,1.7Z"/><path class="b" d="M524.86,163.75v-33.5h7.66v4.68h1.15c.59-1.26,1.65-2.46,3.19-3.59,1.54-1.13,3.87-1.7,6.99-1.7,2.58,0,4.86,.59,6.85,1.76,1.99,1.18,3.54,2.8,4.65,4.88,1.11,2.08,1.66,4.54,1.66,7.39v20.07h-7.8v-19.46c0-2.71-.67-4.74-2-6.07-1.33-1.33-3.22-2-5.66-2-2.76,0-4.93,.92-6.51,2.75-1.58,1.83-2.37,4.44-2.37,7.83v16.95h-7.8Z"/><path class="b" d="M578.37,163.75c-2.17,0-3.9-.64-5.19-1.93-1.29-1.29-1.93-3.04-1.93-5.26v-19.87h-8.75v-6.44h8.75v-10.78h7.8v10.78h9.63v6.44h-9.63v18.58c0,1.36,.63,2.03,1.9,2.03h6.71v6.44h-9.29Z"/><path class="b" d="M613.64,163.75v-47.47h20.28c2.98,0,5.58,.52,7.8,1.56,2.21,1.04,3.94,2.5,5.19,4.38,1.24,1.88,1.87,4.13,1.87,6.75v.75c0,2.94-.7,5.29-2.1,7.05-1.4,1.76-3.1,3.05-5.09,3.87v1.08c1.76,.09,3.15,.7,4.17,1.83,1.02,1.13,1.53,2.65,1.53,4.54v15.67h-8.14v-14.51c0-1.13-.31-2.04-.92-2.75-.61-.7-1.59-1.05-2.95-1.05h-13.43v18.31h-8.21Zm8.21-25.7h11.26c2.35,0,4.19-.62,5.53-1.87,1.33-1.24,2-2.9,2-4.98v-.61c0-2.12-.66-3.81-1.97-5.05-1.31-1.24-3.17-1.87-5.56-1.87h-11.26v14.38Z"/><path class="b" d="M672.64,164.7c-3.35,0-6.34-.69-8.99-2.07-2.65-1.38-4.73-3.35-6.24-5.9-1.52-2.55-2.27-5.62-2.27-9.19v-1.08c0-3.57,.76-6.65,2.27-9.22,1.51-2.58,3.59-4.54,6.24-5.9,2.64-1.36,5.64-2.04,8.99-2.04s6.33,.68,8.95,2.04c2.62,1.36,4.69,3.32,6.21,5.9s2.27,5.65,2.27,9.22v1.08c0,3.57-.76,6.64-2.27,9.19-1.51,2.55-3.58,4.52-6.21,5.9-2.62,1.38-5.61,2.07-8.95,2.07Zm0-6.92c2.85,0,5.18-.92,6.99-2.75,1.81-1.83,2.71-4.4,2.71-7.7v-.68c0-3.3-.91-5.87-2.71-7.7-1.81-1.83-4.14-2.75-6.99-2.75s-5.18,.92-6.99,2.75c-1.81,1.83-2.71,4.4-2.71,7.7v.68c0,3.3,.9,5.87,2.71,7.7,1.81,1.83,4.14,2.75,6.99,2.75Z"/><path class="b" d="M702.08,177.31v-6.78h18.52c1.27,0,1.9-.68,1.9-2.04v-9.36h-1.15c-.36,.81-.95,1.62-1.76,2.41-.81,.79-1.9,1.45-3.25,1.97s-3.08,.78-5.15,.78c-2.58,0-4.86-.58-6.85-1.73-1.99-1.15-3.53-2.78-4.61-4.88s-1.63-4.55-1.63-7.36v-20.08h7.73v19.46c0,2.71,.67,4.73,2,6.04,1.33,1.31,3.22,1.97,5.66,1.97,2.76,0,4.94-.9,6.54-2.71,1.6-1.81,2.41-4.41,2.41-7.8v-16.96h7.73v39.88c0,2.21-.63,3.97-1.9,5.26-1.27,1.29-2.98,1.93-5.16,1.93h-21.02Z"/><path class="b" d="M750.43,164.7c-2.35,0-4.48-.42-6.38-1.25-1.9-.84-3.4-2.04-4.51-3.63-1.11-1.58-1.66-3.53-1.66-5.83s.55-4.16,1.66-5.7c1.11-1.54,2.63-2.7,4.58-3.49,1.94-.79,4.16-1.19,6.65-1.19h9.7v-2.04c0-1.76-.54-3.2-1.63-4.31-1.08-1.11-2.78-1.66-5.09-1.66s-3.97,.53-5.12,1.59c-1.15,1.06-1.91,2.43-2.27,4.1l-7.19-2.37c.54-1.76,1.41-3.37,2.61-4.82,1.2-1.45,2.79-2.61,4.78-3.49,1.99-.88,4.43-1.32,7.32-1.32,4.39,0,7.83,1.1,10.34,3.29,2.51,2.19,3.76,5.37,3.76,9.53v13.16c0,1.36,.63,2.03,1.9,2.03h2.85v6.44h-5.49c-1.63,0-2.96-.41-4-1.22s-1.56-1.92-1.56-3.32v-.14h-1.15c-.27,.63-.75,1.4-1.42,2.31-.68,.91-1.71,1.69-3.09,2.34-1.38,.66-3.25,.98-5.6,.98Zm1.29-6.38c2.58,0,4.68-.73,6.31-2.2,1.63-1.47,2.44-3.45,2.44-5.93v-.68h-9.22c-1.67,0-3.03,.36-4.07,1.08-1.04,.72-1.56,1.79-1.56,3.19s.54,2.45,1.63,3.29c1.08,.84,2.58,1.25,4.48,1.25Z"/><path class="b" d="M779.19,163.75v-47.47h7.8v47.47h-7.8Z"/><path class="b" d="M831.95,164.7c-3.8,0-7.06-.69-9.8-2.07-2.74-1.38-4.84-3.38-6.31-6-1.47-2.62-2.2-5.74-2.2-9.36v-30.99h8.14v31.2c0,3.17,.88,5.61,2.64,7.32,1.76,1.72,4.27,2.58,7.53,2.58s5.82-.86,7.56-2.58c1.74-1.72,2.61-4.16,2.61-7.32v-31.2h8.14v30.99c0,3.62-.72,6.74-2.17,9.36-1.45,2.62-3.55,4.62-6.31,6s-6.04,2.07-9.83,2.07Z"/><path class="b" d="M859.69,163.75v-33.5h7.66v4.68h1.15c.59-1.26,1.65-2.46,3.19-3.59s3.87-1.7,6.99-1.7c2.58,0,4.86,.59,6.85,1.76,1.99,1.18,3.54,2.8,4.65,4.88,1.11,2.08,1.66,4.54,1.66,7.39v20.07h-7.8v-19.46c0-2.71-.67-4.74-2-6.07-1.33-1.33-3.22-2-5.66-2-2.76,0-4.93,.92-6.51,2.75-1.58,1.83-2.37,4.44-2.37,7.83v16.95h-7.8Z"/><path class="b" d="M905.26,125.97c-1.4,0-2.61-.46-3.63-1.39-1.02-.93-1.53-2.16-1.53-3.7s.51-2.77,1.53-3.7,2.23-1.39,3.63-1.39c1.49,0,2.72,.46,3.7,1.39,.97,.93,1.46,2.16,1.46,3.7s-.49,2.77-1.46,3.7c-.97,.93-2.2,1.39-3.7,1.39Zm-3.87,37.78v-33.5h7.8v33.5h-7.8Z"/><path class="b" d="M926.49,163.75l-10.99-33.5h8.27l8.27,27.81h1.15l8.34-27.81h8.27l-10.99,33.5h-12.34Z"/><path class="b" d="M970.37,164.7c-3.35,0-6.3-.71-8.85-2.14-2.55-1.42-4.54-3.44-5.97-6.04-1.42-2.6-2.14-5.64-2.14-9.12v-.81c0-3.53,.7-6.58,2.1-9.16,1.4-2.58,3.37-4.58,5.9-6,2.53-1.42,5.45-2.14,8.75-2.14s6.1,.71,8.54,2.14c2.44,1.42,4.34,3.42,5.7,6s2.03,5.58,2.03,9.02v2.78h-25.16c.09,2.62,1.02,4.73,2.78,6.31,1.76,1.58,3.93,2.37,6.51,2.37s4.41-.55,5.63-1.66c1.22-1.11,2.15-2.36,2.78-3.76l6.44,3.32c-.63,1.22-1.55,2.52-2.75,3.9-1.2,1.38-2.79,2.55-4.78,3.53-1.99,.97-4.5,1.46-7.53,1.46Zm-9.02-21.36h17.16c-.18-2.21-1.03-3.98-2.54-5.29-1.52-1.31-3.47-1.97-5.87-1.97s-4.48,.66-5.97,1.97c-1.49,1.31-2.42,3.08-2.78,5.29Z"/><path class="b" d="M994.45,163.75v-33.5h7.66v3.87h1.15c.5-1.4,1.33-2.42,2.51-3.05,1.17-.63,2.58-.95,4.2-.95h4.07v6.92h-4.2c-2.26,0-4.09,.6-5.49,1.8s-2.1,3.04-2.1,5.53v19.4h-7.8Z"/><path class="b" d="M1034.05,164.7c-4.34,0-7.91-.95-10.72-2.85-2.8-1.9-4.5-4.68-5.09-8.34l7.19-1.83c.32,1.72,.88,3.08,1.7,4.07,.81,1,1.82,1.7,3.02,2.1,1.2,.41,2.5,.61,3.9,.61,2.12,0,3.72-.38,4.78-1.15,1.06-.77,1.59-1.74,1.59-2.92s-.51-2.12-1.53-2.71c-1.02-.59-2.57-1.08-4.65-1.49l-2.1-.34c-2.31-.45-4.41-1.07-6.31-1.87-1.9-.79-3.42-1.88-4.58-3.25-1.15-1.38-1.73-3.13-1.73-5.26,0-3.25,1.21-5.76,3.63-7.53,2.42-1.76,5.59-2.65,9.53-2.65s6.85,.84,9.29,2.51,4.02,3.91,4.75,6.71l-7.19,2.17c-.36-1.9-1.15-3.24-2.37-4.04-1.22-.79-2.71-1.19-4.48-1.19s-3.2,.32-4.17,.95c-.97,.63-1.46,1.54-1.46,2.71s.5,2.06,1.49,2.65c.99,.59,2.33,1.02,4,1.29l2.1,.41c2.49,.45,4.74,1.04,6.75,1.76s3.61,1.76,4.78,3.12c1.17,1.36,1.76,3.19,1.76,5.49,0,3.48-1.25,6.16-3.76,8.04-2.51,1.88-5.89,2.81-10.14,2.81Z"/><path class="b" d="M1059.69,125.97c-1.4,0-2.61-.46-3.63-1.39-1.02-.93-1.53-2.16-1.53-3.7s.51-2.77,1.53-3.7,2.23-1.39,3.63-1.39c1.49,0,2.72,.46,3.7,1.39,.97,.93,1.46,2.16,1.46,3.7s-.49,2.77-1.46,3.7c-.97,.93-2.2,1.39-3.7,1.39Zm-3.87,37.78v-33.5h7.8v33.5h-7.8Z"/><path class="b" d="M1086.27,163.75c-2.17,0-3.9-.64-5.19-1.93-1.29-1.29-1.93-3.04-1.93-5.26v-19.87h-8.75v-6.44h8.75v-10.78h7.8v10.78h9.63v6.44h-9.63v18.58c0,1.36,.63,2.03,1.9,2.03h6.71v6.44h-9.29Z"/><path class="b" d="M1108.25,177.31v-6.78h18.52c1.27,0,1.9-.68,1.9-2.04v-9.36h-1.15c-.36,.81-.95,1.62-1.76,2.41-.81,.79-1.9,1.45-3.25,1.97s-3.08,.78-5.15,.78c-2.58,0-4.86-.58-6.85-1.73-1.99-1.15-3.53-2.78-4.61-4.88s-1.63-4.55-1.63-7.36v-20.08h7.73v19.46c0,2.71,.67,4.73,2,6.04,1.33,1.31,3.22,1.97,5.66,1.97,2.76,0,4.94-.9,6.54-2.71,1.6-1.81,2.41-4.41,2.41-7.8v-16.96h7.73v39.88c0,2.21-.63,3.97-1.9,5.26-1.27,1.29-2.98,1.93-5.16,1.93h-21.02Z"/></g></svg>